<svg id="ekoz19un45q1" xmlns="http://www.w3.org/2000/svg" xmlns:xlink="http://www.w3.org/1999/xlink" viewBox="0 0 741.660000 404.230000" shape-rendering="geometricPrecision" text-rendering="geometricPrecision"><g id="ekoz19un45q2"><g id="ekoz19un45q3"><path id="ekoz19un45q4" d="M695.650000,154.180000L701.650000,154.770000L707.650000,155.250000L713.650000,155.650000C715.650000,155.760000,717.650000,155.830000,719.650000,155.920000L718.070000,158.090000C716.984200,155.540973,716.081903,152.917628,715.370000,150.240000C714.637801,147.565642,714.099734,144.841888,713.760000,142.090000L715.320000,143.630000C713.490000,143.410000,711.660000,143.220000,709.820000,143.080000C707.980000,142.940000,706.140000,142.790000,704.300000,142.710000C702.460000,142.630000,700.610000,142.590000,698.760000,142.550000C696.910000,142.510000,695.060000,142.550000,693.210000,142.550000L694.330000,141.380000C694.230000,142.560000,694.160000,143.750000,694.120000,144.940000C694.080000,146.130000,694.030000,147.320000,694.030000,148.510000C694.030000,149.700000,694.030000,150.910000,694.090000,152.100000C694.150000,153.290000,694.180000,154.510000,694.260000,155.710000L694.060000,155.710000C693.245746,150.954915,692.884128,146.133344,692.980000,141.310000L692.980000,141.180000L693.100000,141.180000C700.577350,140.626408,708.090098,140.773717,715.540000,141.620000L715.690000,141.620000L715.690000,141.770000C716.389601,147.115476,717.732672,152.356811,719.690000,157.380000L719.790000,157.620000L719.530000,157.620000C711.461181,157.097298,703.440454,155.994448,695.530000,154.320000Z" fill="rgb(0,0,0)" stroke="none" stroke-width="1"/><line id="ekoz19un45q5" x1="1" y1="403.190000" x2="735.050000" y2="403.190000" fill="none" stroke="rgb(0,0,0)" stroke-width="2" stroke-linecap="round" stroke-miterlimit="10"/><rect id="ekoz19un45q6" width="269.200000" height="158.550000" rx="4.470000" ry="0" transform="matrix(1 0 0 1 57.67000000000000 240.67911400999998)" fill="rgb(0,0,0)" stroke="none" stroke-width="1"/><path id="ekoz19un45q7" d="M87.250000,266.620000L105.710000,279.450000L87.250000,295.790000" transform="matrix(1 0 0 1 -21.14999999999996 5.68151904500019)" fill="none" stroke="rgb(255,255,255)" stroke-width="2" stroke-miterlimit="10"/><path id="ekoz19un45q8" d="M115.660000,287.560000L152.660000,287.560000" transform="matrix(0.75338673143295 0 0 1.49907535921578 13.91798157924059 -145.86583764265907)" fill="none" stroke="rgb(255,255,255)" stroke-width="2" stroke-miterlimit="10"/><path id="ekoz19un45q9" d="M84.560000,313L167.500000,313" fill="none" stroke="rgb(255,255,255)" stroke-width="2" stroke-miterlimit="10"/><path id="ekoz19un45q10" d="M84.300000,342.710000L126.450000,342.710000" fill="none" stroke="rgb(255,255,255)" stroke-width="2" stroke-miterlimit="10"/><path id="ekoz19un45q11" d="M84.560000,327.460000L116.360000,327.460000" fill="none" stroke="rgb(255,255,255)" stroke-width="2" stroke-miterlimit="10"/><path id="ekoz19un45q12" d="M128.930000,327.460000L175.740000,327.460000" fill="none" stroke="rgb(249,110,16)" stroke-width="2" stroke-miterlimit="10"/><path id="ekoz19un45q13" d="M84,356.460000L115.800000,356.460000" fill="none" stroke="rgb(249,110,16)" stroke-width="2" stroke-miterlimit="10"/><path id="ekoz19un45q14" d="M128.410000,356.460000L160.210000,356.460000" fill="none" stroke="rgb(249,110,16)" stroke-width="2" stroke-miterlimit="10"/><path id="ekoz19un45q15" d="M83.880000,372.660000L100.180000,372.660000" fill="none" stroke="rgb(255,255,255)" stroke-width="2" stroke-miterlimit="10"/><g id="ekoz19un45q16" transform="matrix(1 0 0 1 0.11882843000001 -1.95998992999998)"><path id="ekoz19un45q17" d="M238.380000,298.050000L238.280000,295.240000L238.280000,293.790000L238.280000,292.410000C238.280000,290.570000,238.230000,288.720000,238.230000,286.880000C238.230000,283.190000,238.300000,279.500000,238.390000,275.810000Q238.700000,264.750000,239.590000,253.700000C240.140000,246.330000,241,238.980000,242,231.700000C243,224.420000,244.190000,217.070000,245.580000,209.810000C248.340000,195.280000,251.490000,180.810000,255.580000,166.580000C257.580000,159.450000,259.810000,152.360000,262.490000,145.370000C263.798492,141.831821,265.304185,138.369729,267,135C267.891416,133.270542,268.893498,131.600406,270,130C271.207374,128.196523,272.736136,126.630475,274.510000,125.380000C275.646466,124.605530,276.968128,124.146572,278.340000,124.050000C279.800902,123.986042,281.245155,124.381200,282.470000,125.180000C283.479851,125.836164,284.375096,126.653708,285.120000,127.600000C285.792812,128.421009,286.394960,129.297468,286.920000,130.220000C288.777440,133.637660,290.252995,137.249414,291.320000,140.990000C292.440000,144.610000,293.320000,148.260000,294.060000,151.920000C294.800000,155.580000,295.480000,159.240000,296.060000,162.920000C298.380000,177.590000,299.850000,192.300000,300.830000,207.090000Q301.490000,218.190000,301.520000,229.310000L301.520000,234.870000L301.350000,240.430000C301.200000,244.130000,301.030000,247.830000,300.770000,251.520000C299.781043,266.280939,297.937956,280.972208,295.250000,295.520000L295.040000,296.690000L293.880000,296.690000C289.180000,296.870000,284.480000,296.950000,279.810000,297.070000L265.810000,297.400000ZM238.590000,297.830000L293.800000,295.050000L293.620000,295.210000C298.571341,266.155418,300.105108,236.621169,298.190000,207.210000C297.140000,192.530000,295.590000,177.870000,293.190000,163.340000C292.055138,156.074180,290.478888,148.884208,288.470000,141.810000C287.486329,138.282377,286.121626,134.872296,284.400000,131.640000C283.569125,130.039051,282.382002,128.650084,280.930000,127.580000C280.206655,127.096146,279.349782,126.851325,278.480000,126.880000C277.606495,126.946170,276.767011,127.246726,276.050000,127.750000C274.574902,128.797023,273.303951,130.105255,272.300000,131.610000C271.249142,133.106300,270.297117,134.669626,269.450000,136.290000C267.759692,139.535812,266.253964,142.874457,264.940000,146.290000C262.280000,153.150000,260.050000,160.170000,258,167.290000C253.940000,181.440000,250.550000,195.780000,247.600000,210.210000C244.650000,224.640000,242.450000,239.210000,240.930000,253.860000Q239.790000,264.860000,239.220000,275.860000C239.040000,279.540000,238.880000,283.220000,238.790000,286.860000C238.700000,290.500000,238.690000,294.280000,238.590000,297.830000Z" fill="rgb(0,0,0)" stroke="none" stroke-width="1"/><path id="ekoz19un45q18" d="M251.300000,285.800000C251.342965,258.473993,253.745219,231.202718,258.480000,204.290000C260.020000,195.560000,271.480000,130.460000,282.050000,131.290000C291.670000,132.060000,295.690000,187.350000,296.390000,196.980000C298.481162,225.796528,297.451852,254.754667,293.320000,283.350000Z" fill="rgb(249,110,16)" stroke="none" stroke-width="1"/><path id="ekoz19un45q19" d="M254.200000,284.450000L292.750000,284.450000Q295.640000,296.260000,298.530000,308.060000L244.530000,308.060000Q249.380000,296.260000,254.200000,284.450000Z" fill="none" stroke="rgb(255,255,255)" stroke-width="2" stroke-miterlimit="10"/><path id="ekoz19un45q20" d="M244,272.380000C241.320000,272.770000,238.580000,273.130000,235.820000,273.490000C233.060000,273.850000,230.290000,274.260000,227.450000,274.580000L210.320000,276.530000L202.800000,277.390000L209.480000,273.650000C215.582023,270.238799,221.284024,266.156837,226.480000,261.480000C229.063946,259.135998,231.517618,256.652281,233.830000,254.040000C236.140000,251.430000,238.260000,248.640000,240.370000,245.820000C241.430000,244.390000,242.460000,242.950000,243.590000,241.500000C244.187551,240.700541,244.857010,239.957442,245.590000,239.280000C245.842221,239.061298,246.117119,238.870210,246.410000,238.710000C246.864762,238.458675,247.381231,238.340823,247.900000,238.370000C248.222473,238.398180,248.533992,238.500878,248.810000,238.670000C249.059358,238.802284,249.280226,238.982377,249.460000,239.200000C249.606040,239.376346,249.733389,239.567368,249.840000,239.770000L250.040000,240.260000C250.219456,240.799809,250.323768,241.361748,250.350000,241.930000C250.379596,242.419553,250.379596,242.910447,250.350000,243.400000C250.350000,244.350000,250.250000,245.280000,250.140000,246.180000C249.940000,248.010000,249.640000,249.780000,249.310000,251.550000C248.980000,253.320000,248.610000,255.070000,248.240000,256.820000C247.870000,258.570000,247.380000,260.300000,246.930000,262.020000C246.480000,263.740000,246,265.470000,245.530000,267.190000C245.060000,268.910000,244.430000,270.740000,244,272.380000ZM243.870000,272.230000C245.400000,265.400000,247,258.360000,248.090000,251.360000C248.350000,249.600000,248.590000,247.840000,248.730000,246.070000C248.962095,244.324265,248.891052,242.551564,248.520000,240.830000C248.438072,240.444689,248.149230,240.136591,247.770000,240.030000C247.365287,240.076359,246.989915,240.264045,246.710000,240.560000C246.079046,241.174862,245.503488,241.844116,244.990000,242.560000C243.930000,243.980000,242.920000,245.450000,241.880000,246.900000C237.810398,252.796549,233.068513,258.199546,227.750000,263C222.415517,267.750177,216.530078,271.842790,210.220000,275.190000L210.140000,274.890000Z" fill="rgb(255,255,255)" stroke="none" stroke-width="1"/><path id="ekoz19un45q21" d="M298.610000,272.230000C301.560000,272.290000,304.440000,272.370000,307.300000,272.470000C310.160000,272.570000,313.010000,272.590000,315.800000,272.730000L332.400000,273.470000L331.560000,276.350000C328.335877,274.692557,325.210626,272.849460,322.200000,270.830000C319.200149,268.781783,316.334305,266.543886,313.620000,264.130000C308.218069,259.279827,303.435264,253.781617,299.380000,247.760000C298.380000,246.300000,297.380000,244.760000,296.380000,243.410000C295.931142,242.766050,295.429407,242.160622,294.880000,241.600000C294.798967,241.523298,294.712033,241.453082,294.620000,241.390000C294.527967,241.326918,294.620000,241.390000,294.840000,241.390000C294.942768,241.380724,295.043740,241.357164,295.140000,241.320000C295.220000,241.270000,295.270000,241.180000,295.280000,241.200000C295.290000,241.220000,295.280000,241.140000,295.280000,241.200000C295.268169,241.243588,295.247772,241.284382,295.220000,241.320000C295.009458,242.010466,294.901637,242.728149,294.900000,243.450000C294.900000,244.280000,294.900000,245.140000,294.900000,246C294.980000,247.730000,295.160000,249.490000,295.380000,251.240000C295.820000,254.740000,296.380000,258.240000,296.910000,261.760000ZM298.480000,272.380000C297.630000,268.860000,296.840000,265.380000,296.110000,261.900000C295.380000,258.420000,294.680000,254.900000,294.110000,251.400000C293.830000,249.640000,293.590000,247.870000,293.440000,246.090000C293.360000,245.200000,293.320000,244.310000,293.320000,243.410000C293.291398,242.501716,293.402700,241.594437,293.650000,240.720000C293.765979,240.223586,294.153586,239.835979,294.650000,239.720000C295.142528,239.752723,295.605556,239.966428,295.950000,240.320000C296.596444,240.934500,297.188641,241.603650,297.720000,242.320000C298.790000,243.740000,299.800000,245.210000,300.850000,246.650000C304.912951,252.497689,309.626447,257.865371,314.900000,262.650000C320.198934,267.401936,326.051106,271.498121,332.330000,274.850000L332.990000,275.210000L332.240000,275.150000Z" fill="rgb(255,255,255)" stroke="none" stroke-width="1"/><path id="ekoz19un45q22" d="M256.070000,162.910000C259.070000,163.570000,261.880000,164.210000,264.730000,164.630000C266.160000,164.810000,267.560000,165.020000,268.990000,165.100000C270.399515,165.228196,271.814833,165.281604,273.230000,165.260000C274.648360,165.289941,276.067280,165.239862,277.480000,165.110000C278.900000,165.030000,280.310000,164.820000,281.730000,164.640000C284.580000,164.210000,287.420000,163.580000,290.390000,162.910000L290.480000,163.090000C279.652193,168.650655,266.807807,168.650655,255.980000,163.090000Z" fill="rgb(0,0,0)" stroke="none" stroke-width="1"/></g><g id="ekoz19un45q23" transform="matrix(1.15141777000060 0 0 1.07592606895631 -43.27433564505844 -20.94487643317984)"><path id="ekoz19un45q24" d="M256.220000,309.340000Q259.040000,340.340000,261.840000,371.340000C262.570000,379.420000,259.450000,386.440000,254.190000,389.080000C248.720000,391.820000,239.770000,389.540000,236.520000,384.130000C230.230000,373.670000,249.520000,358.650000,243.690000,347.500000C239.890000,340.300000,226.970000,337.370000,217.890000,341.410000C207.890000,345.860000,205.230000,357.570000,204.890000,359.280000C202.620000,369.280000,207.480000,374.520000,204.020000,378.200000C199.440000,383.080000,189.330000,375.610000,181.120000,380.130000C174.770000,383.630000,172.760000,392.560000,172.190000,400.600000L388.120000,399.200000C388.530000,398.480000,395.310000,386.200000,388.860000,374.880000C388.210000,373.750000,383.590000,365.880000,375.100000,364.430000C369.700000,363.500000,365.180000,365.760000,356.350000,370.300000C343.700000,376.820000,339.710000,381.580000,337.700000,380.220000C333.570000,377.430000,349.610000,356.830000,342.210000,345.020000C337.850000,338.020000,325.800000,334.850000,319.110000,338.850000C310.230000,344.160000,316.810000,358.550000,306.400000,370.220000C300,377.400000,288.300000,382.220000,282.330000,378.920000C276.110000,375.450000,272.220000,360.920000,287.270000,307.260000Z" transform="matrix(0.99107893746306 0 0 0.99137373322127 2.51493677511559 3.05309460099471)" fill="rgb(255,255,255)" stroke="none" stroke-width="1"/><path id="ekoz19un45q25" d="M334.370000,372.210000C333.473541,374.644303,333.413725,377.307907,334.200000,379.780000C334.892483,381.830618,336.825735,383.202864,338.990000,383.180000C340.183082,383.234288,341.377350,383.102716,342.530000,382.790000C343.744563,382.497186,344.922064,382.067784,346.040000,381.510000C348.353696,380.230590,350.312575,378.395430,351.740000,376.170000L351.740000,376.170000C351.778884,376.131886,351.841116,376.131886,351.880000,376.170000C351.910557,376.204164,351.910557,376.255836,351.880000,376.290000C350.975322,378.972481,349.219741,381.286337,346.880000,382.880000C344.502325,384.431598,341.719038,385.245710,338.880000,385.220000C337.431952,385.180254,336.032887,384.687084,334.880000,383.810000C333.767115,382.893373,332.981200,381.640821,332.640000,380.240000C332.027369,377.447495,332.579904,374.525920,334.170000,372.150000C334.208884,372.111886,334.271116,372.111886,334.310000,372.150000C334.335015,372.182400,334.335015,372.227600,334.310000,372.260000Z" fill="rgb(0,0,0)" stroke="none" stroke-width="1"/><path id="ekoz19un45q26" d="M378.870000,374.770000C380.914897,375.289847,382.753063,376.419953,384.140000,378.010000C384.875382,378.799088,385.501018,379.683724,386,380.640000C386.483029,381.623785,386.848867,382.660886,387.090000,383.730000C387.531084,385.877470,387.375451,388.104741,386.640000,390.170000C385.967252,392.183677,384.675865,393.933523,382.950000,395.170000L382.950000,395.170000C382.911116,395.208114,382.848884,395.208114,382.810000,395.170000C382.790350,395.135966,382.790350,395.094034,382.810000,395.060000C385.087717,391.921015,385.940552,387.968942,385.160000,384.170000C384.328512,380.385242,382.040088,377.080140,378.790000,374.970000C378.756470,374.929356,378.756470,374.870644,378.790000,374.830000C378.820940,374.812137,378.859060,374.812137,378.890000,374.830000Z" fill="rgb(0,0,0)" stroke="none" stroke-width="1"/></g><path id="ekoz19un45q27" d="M261.070000,314L264.120000,356L259.120000,314.270000C259.086073,314.005975,259.158815,313.739320,259.322113,313.529097C259.485411,313.318874,259.725788,313.182435,259.990000,313.150000C260.255569,313.116190,260.523605,313.190276,260.734113,313.355675C260.944620,313.521073,261.080018,313.763972,261.110000,314.030000Z" fill="rgb(0,0,0)" stroke="none" stroke-width="1"/><path id="ekoz19un45q28" d="M270.520000,314.130000L269.520000,353.260000L268.520000,314.130000C268.506193,313.577715,268.942715,313.118807,269.495000,313.105000C270.047285,313.091193,270.506193,313.527715,270.520000,314.080000Z" fill="rgb(0,0,0)" stroke="none" stroke-width="1"/><path id="ekoz19un45q29" d="M281.300000,315.670000L273.570000,350.560000L279.330000,315.290000C279.421772,314.746403,279.936171,314.379614,280.480000,314.470000C281.023106,314.557064,281.393940,315.066402,281.310000,315.610000C281.301969,315.628928,281.298542,315.649491,281.300000,315.670000Z" fill="rgb(0,0,0)" stroke="none" stroke-width="1"/><path id="ekoz19un45q30" d="M233.850000,368.830000C232.114968,372.711441,231.720932,377.059902,232.730000,381.190000C233.229371,383.135008,234.061658,384.978895,235.190000,386.640000C235.745825,387.437193,236.375252,388.180453,237.070000,388.860000C237.780181,389.518325,238.561696,390.095237,239.400000,390.580000C242.670000,392.640000,246.860000,392.920000,250.900000,392.110000C252.947547,391.711434,254.925365,391.013975,256.770000,390.040000C257.727189,389.560573,258.640662,388.998436,259.500000,388.360000C259.940000,388.040000,260.360000,387.700000,260.770000,387.360000C261.180000,387.020000,261.620000,386.650000,262.020000,386.270000L262.020000,386.270000C262.058884,386.231886,262.121116,386.231886,262.160000,386.270000C262.177726,386.286976,262.187751,386.310456,262.187751,386.335000C262.187751,386.359544,262.177726,386.383024,262.160000,386.400000C259.450510,389.965451,255.622817,392.518420,251.290000,393.650000C249.141111,394.248990,246.904900,394.472273,244.680000,394.310000C242.445102,394.134719,240.279897,393.450610,238.350000,392.310000C237.392760,391.747361,236.503559,391.076266,235.700000,390.310000C234.907780,389.523055,234.200554,388.654943,233.590000,387.720000C229.939593,381.926961,229.966872,374.545898,233.660000,368.780000C233.698884,368.741886,233.761116,368.741886,233.800000,368.780000C233.830557,368.814164,233.830557,368.865836,233.800000,368.900000Z" fill="rgb(0,0,0)" stroke="none" stroke-width="1"/><path id="ekoz19un45q31" d="M211.410000,353.220000C212.018072,350.388467,213.497230,347.818299,215.640000,345.870000C217.850387,343.797255,220.641967,342.450317,223.640000,342.010000C224.389861,341.918232,225.144546,341.871481,225.900000,341.870000C226.653205,341.858543,227.405995,341.912075,228.150000,342.030000C229.624411,342.259012,231.054604,342.714380,232.390000,343.380000C235.003938,344.619210,237.172379,346.634009,238.600000,349.150000L238.600000,349.150000C238.638114,349.188884,238.638114,349.251116,238.600000,349.290000C238.563522,349.313739,238.516478,349.313739,238.480000,349.290000C236.624136,347.339577,234.360146,345.823421,231.850000,344.850000C229.341819,343.886749,226.625903,343.593789,223.970000,344C221.309862,344.376980,218.797563,345.453679,216.690000,347.120000C214.576856,348.778855,212.867335,350.895242,211.690000,353.310000C211.667305,353.359066,211.609725,353.381212,211.560000,353.360000C211.519030,353.339420,211.495122,353.295588,211.500000,353.250000Z" fill="rgb(0,0,0)" stroke="none" stroke-width="1"/><path id="ekoz19un45q32" d="M273.670000,360C273.003100,365.116892,273.800604,370.318007,275.970000,375C276.948214,377.239470,278.339078,379.274881,280.070000,381C280.900941,381.773952,281.853695,382.405743,282.890000,382.870000C283.920950,383.351849,285.027055,383.652899,286.160000,383.760000C288.552167,383.989562,290.965788,383.706609,293.240000,382.930000C294.454697,382.567755,295.646798,382.133657,296.810000,381.630000C297.968189,381.147353,299.099798,380.603246,300.200000,380C302.406433,378.729156,304.442695,377.183478,306.260000,375.400000C307.201781,374.502537,308.086824,373.547359,308.910000,372.540000C309.720000,371.540000,310.510000,370.460000,311.260000,369.360000L311.260000,369.360000C311.298884,369.321886,311.361116,369.321886,311.400000,369.360000C311.428345,369.398698,311.428345,369.451302,311.400000,369.490000C309.077972,374.316194,305.486303,378.419477,301.010000,381.360000C300.450000,381.730000,299.860000,382.050000,299.290000,382.360000C298.720000,382.670000,298.100000,382.970000,297.490000,383.240000C296.287039,383.811875,295.051586,384.312735,293.790000,384.740000C291.261002,385.645039,288.564742,385.986338,285.890000,385.740000C283.190207,385.436349,280.667956,384.243820,278.720000,382.350000C276.869192,380.410238,275.427286,378.118151,274.480000,375.610000C272.465378,370.631218,272.114598,365.134482,273.480000,359.940000C273.484802,359.913212,273.500316,359.889538,273.522961,359.874441C273.545605,359.859345,273.573425,359.854130,273.600000,359.860000C273.646878,359.876555,273.678694,359.920302,273.680000,359.970000Z" fill="rgb(0,0,0)" stroke="none" stroke-width="1"/><path id="ekoz19un45q33" d="M319.360000,346.470000C319.461153,344.733098,320.325041,343.129782,321.720000,342.090000C322.428811,341.521103,323.240123,341.093382,324.110000,340.830000C325.004145,340.581339,325.934087,340.486654,326.860000,340.550000C327.789628,340.653799,328.693559,340.921254,329.530000,341.340000C330.341773,341.765713,331.059400,342.350697,331.640000,343.060000C332.793029,344.366548,333.305962,346.117847,333.040000,347.840000L333.040000,347.840000C333.037775,347.866004,333.024370,347.889761,333.003263,347.905112C332.982156,347.920463,332.955425,347.925895,332.930000,347.920000C332.893081,347.911956,332.862874,347.885525,332.850000,347.850000C332.470436,346.434930,331.688915,345.160182,330.600000,344.180000C329.514670,343.208714,328.141631,342.618764,326.690000,342.500000C325.238919,342.357761,323.779898,342.676157,322.520000,343.410000C321.242612,344.137732,320.201281,345.217246,319.520000,346.520000C319.503024,346.537726,319.479544,346.547751,319.455000,346.547751C319.430456,346.547751,319.406976,346.537726,319.390000,346.520000C319.353679,346.506135,319.332584,346.468164,319.340000,346.430000Z" fill="rgb(0,0,0)" stroke="none" stroke-width="1"/><path id="ekoz19un45q34" d="M557.380000,128.330000C556.470000,123.730000,557.380000,120.770000,556.740000,122.620000C552.133748,127.485078,548.088399,132.852040,544.680000,138.620000C543.687685,137.884344,542.814179,137.000721,542.090000,136C539.440000,132.270000,540.250000,127.700000,540.740000,125.200000C543,113.700000,554.310000,103,558.280000,105C561.750000,106.750000,560.660000,118.830000,557.380000,128.330000Z" fill="rgb(0,0,0)" stroke="none" stroke-width="1"/><path id="ekoz19un45q35" d="M558.280000,106.330000C565.660000,95.650000,591.130000,98.790000,608.210000,107.680000C622.750000,115.250000,630.330000,126.530000,636.540000,136.020000C642.140000,144.560000,659.290000,170.750000,654.080000,203.490000C652.450000,213.750000,649.080000,235.030000,632.500000,242.620000C621.600000,247.620000,605.310000,246.530000,598.760000,237.220000C591.550000,226.970000,598.470000,210.070000,604.160000,202.140000C605.880000,199.730000,608.010000,197.440000,612.260000,191.340000C619.470000,180.990000,620.130000,177.890000,620.350000,176.500000C621.550000,169,618.240000,160.590000,614.950000,160.310000C612.430000,160.090000,611.870000,164.850000,606.860000,168.400000C600.430000,172.950000,592.230000,171.590000,589.320000,171.100000C576.600000,168.980000,569.190000,158.780000,566.380000,154.910000C558.380000,143.840000,557.580000,132.360000,556.930000,122.520000C556.360000,113.860000,556.070000,109.530000,558.280000,106.330000Z" fill="rgb(0,0,0)" stroke="none" stroke-width="1"/><path id="ekoz19un45q36" d="M555.580000,123.870000C549.410000,130.650000,536.180000,147.180000,533.990000,171.100000C532.150000,191.290000,539.260000,204.830000,540.740000,207.530000C543.740000,213.050000,549.050000,222.720000,558.280000,223.730000C562.077124,224.020054,565.866092,223.072812,569.080000,221.030000" fill="none" stroke="rgb(0,0,0)" stroke-width="1" stroke-miterlimit="10"/><path id="ekoz19un45q37" d="M536.560000,159.350000C537.755493,158.543302,539.127344,158.035717,540.560000,157.870000C541.251922,157.769994,541.951179,157.729846,542.650000,157.750000C543.350880,157.793231,544.048697,157.876702,544.740000,158C545.417998,158.155990,546.085894,158.353019,546.740000,158.590000C547.396136,158.839782,548.028649,159.147672,548.630000,159.510000C549.875498,160.218531,550.931970,161.216692,551.710000,162.420000L551.610000,162.600000C549.344183,161.327479,546.884804,160.435616,544.330000,159.960000C541.791407,159.414065,539.182100,159.275667,536.600000,159.550000Z" fill="rgb(0,0,0)" stroke="none" stroke-width="1"/><path id="ekoz19un45q38" d="M558.550000,163.930000C559.477578,162.636987,560.823571,161.704330,562.360000,161.290000C563.139734,161.061847,563.947582,160.944035,564.760000,160.940000C566.447779,160.928175,568.097399,161.441934,569.480000,162.410000C570.165626,162.900562,570.761095,163.506182,571.240000,164.200000C572.212946,165.510330,572.610133,167.160461,572.340000,168.770000L572.140000,168.770000C571.769899,167.445426,571.083551,166.230591,570.140000,165.230000C569.173896,164.251534,567.971898,163.538602,566.650000,163.160000C565.337202,162.755007,563.953577,162.632321,562.590000,162.800000C561.218238,162.975029,559.889864,163.398618,558.670000,164.050000Z" fill="rgb(0,0,0)" stroke="none" stroke-width="1"/><path id="ekoz19un45q39" d="M552.930000,171.110000C552.930000,172.450000,552.930000,173.780000,552.870000,175.110000L552.710000,179.110000C552.620000,181.760000,552.430000,184.400000,552.390000,187.040000C552.350000,189.680000,551.990000,192.410000,553.750000,193.900000C554.688979,194.676793,555.837569,195.157113,557.050000,195.280000C558.347617,195.477144,559.665420,195.504038,560.970000,195.360000L560.970000,195.460000C559.660410,195.768258,558.313224,195.886137,556.970000,195.810000C555.617133,195.758118,554.310894,195.301805,553.220000,194.500000C552.163018,193.630271,551.508815,192.365238,551.410000,191C551.276718,189.670860,551.253305,188.332990,551.340000,187C551.580000,181.690000,552.080000,176.390000,552.780000,171.110000Z" fill="rgb(0,0,0)" stroke="none" stroke-width="1"/><path id="ekoz19un45q40" d="M550.190000,207.504000C551.302613,207.400501,552.397977,207.331502,553.476091,207.141754C554.552742,206.997926,555.620894,206.796388,556.675932,206.538010C557.728171,206.253388,558.780410,206.011891,559.798150,205.675519C560.816059,205.325278,561.815028,204.922236,562.790993,204.468032C564.767929,203.606762,566.647302,202.536965,568.397185,201.276815C569.297075,200.659638,570.160973,199.991557,570.984658,199.275836C571.847148,198.594468,572.623390,197.818227,573.434132,197.059234L573.503131,197.110984C567.956618,204.247797,559.236170,208.175229,550.215875,207.598874Z" fill="rgb(0,0,0)" stroke="none" stroke-width="1"/><circle id="ekoz19un45q41" r="2.700000" transform="matrix(1 0 0 0.22592906934065 541.40999999999997 171.78000000000000)" fill="rgb(0,0,0)" stroke="none" stroke-width="1"/><circle id="ekoz19un45q42" r="2.700000" transform="matrix(1 0 0 0.25324432166424 565.70000000000005 175.81999999999999)" fill="rgb(0,0,0)" stroke="none" stroke-width="1"/><path id="ekoz19un45q43" d="M695.910000,399.140000C691.910000,372.770000,682.910000,333.140000,662.180000,299.290000C653.955173,285.499562,643.476613,273.185564,631.180000,262.860000C611.380000,246.420000,596.400000,243.450000,590.700000,242.620000C583.230000,241.520000,573.630000,240.260000,565.700000,245.990000C557.590000,251.880000,555.830000,261.850000,554.910000,267.580000C552.460000,282.740000,557.370000,293.070000,566.380000,318.180000C569.920000,328.050000,575.380000,343.830000,581.480000,363.900000C554.630000,365.970000,535.840000,369.980000,523.200000,373.500000C515.350000,375.690000,506.130000,378.730000,493.510000,377.550000C482.510000,376.550000,480.730000,373.380000,470.570000,373.500000C459.880000,373.640000,451.880000,377.240000,442.240000,381.600000C435.810000,384.500000,422.490000,391.200000,423.350000,393.740000C423.950000,395.540000,431.510000,395.020000,436.840000,393.740000C443.210000,392.220000,443.620000,390.260000,448.980000,389.740000C452.980000,389.310000,456.230000,390.020000,461.130000,391.080000C464.333643,391.767332,467.487428,392.669367,470.570000,393.780000C481.370000,397.780000,599.620000,419.940000,617.650000,381.640000C620.060000,376.530000,618.810000,367.890000,616.300000,350.640000C613.314988,329.970352,608.345360,309.636400,601.460000,289.920000" transform="matrix(0.99877337431039 0.04951511656699 -0.04951511656699 0.99877337431039 15.74912233697489 -30.92756530781162)" fill="none" stroke="rgb(0,0,0)" stroke-width="1" stroke-miterlimit="10"/><path id="ekoz19un45q44" d="M563.640000,305.940000C566.367730,304.110256,569.322711,302.644532,572.430000,301.580000C573.978321,301.030005,575.553703,300.559393,577.150000,300.170000C578.740000,299.790000,580.360000,299.500000,581.980000,299.230000C583.600000,298.960000,585.250000,298.860000,586.890000,298.780000C588.530000,298.700000,590.170000,298.690000,591.810000,298.780000C595.091419,298.935129,598.338692,299.516680,601.470000,300.510000L601.470000,300.710000C588.644482,299.515362,575.717999,301.362003,563.740000,306.100000Z" transform="matrix(0.99877337431039 0.04951511656699 -0.04951511656699 0.99877337431039 15.68834912588875 -28.47433719057369)" fill="rgb(0,0,0)" stroke="none" stroke-width="1"/><path id="ekoz19un45q45" d="M552.880000,223.730000L558.280000,248.730000" fill="none" stroke="rgb(0,0,0)" stroke-width="1" stroke-linecap="round" stroke-miterlimit="10"/><path id="ekoz19un45q46" d="M380.170000,229.120000C375.725275,230.012395,371.203422,230.464580,366.670000,230.470000C357.980000,230.470000,353.670000,230.470000,353.180000,229.120000C352.450000,226.940000,360.180000,222.040000,371.180000,217.460000C371.280000,217.410000,371.410000,217.370000,371.510000,217.330000C378.697770,214.359989,386.111360,211.969047,393.680000,210.180000C394.680000,209.950000,395.680000,209.730000,396.680000,209.520000C402.344927,208.276111,408.120754,207.606061,413.920000,207.520000C418.130473,207.372497,422.308948,208.301812,426.060000,210.220000C434.390000,214.700000,437.140000,223.510000,439.560000,229.110000C443.090000,237.300000,451.350000,245.370000,467.890000,261.500000C488.780000,281.870000,500.100000,292.910000,509.720000,289.830000C516.200000,287.770000,520.980000,278.650000,529.960000,260.150000C532.960000,253.890000,535.870000,246.690000,543.460000,241.260000C547.109666,238.674752,551.235998,236.839316,555.600000,235.860000" transform="matrix(0.99405858042212 -0.10884639952315 0.10884639952315 0.99405858042212 -30.88131376937037 74.62623149308911)" fill="none" stroke="rgb(0,0,0)" stroke-width="1" stroke-miterlimit="10"/><path id="ekoz19un45q47" d="M408.500000,221C397.050000,222,390.240000,226.430000,386.910000,229.090000C384.720000,230.850000,382.540000,232.630000,382.910000,234.490000C383.570000,238.290000,394.290000,239.890000,401.800000,239.890000C413.410000,239.890000,414.800000,236.070000,420.690000,237.190000C429.820000,238.930000,432.260000,249.390000,443.630000,268.190000C445.970000,272.070000,454.420000,285.960000,465.220000,297.880000C476.830000,310.710000,488.550000,323.640000,503,324.880000C521.340000,326.430000,540.930000,308.880000,552.920000,283.050000" transform="matrix(0.99871656199946 -0.05064808770311 0.05064808770311 0.99871656199946 -14.98446705593153 42.73349052818162)" fill="none" stroke="rgb(0,0,0)" stroke-width="1" stroke-linecap="round" stroke-miterlimit="10"/><path id="ekoz19un45q48" d="M614,164.180000C615.219395,164.570530,616.274602,165.354900,617,166.410000C618.581930,168.590084,618.802351,171.474883,617.570000,173.870000C617.002828,175.041871,616.034193,175.971476,614.840000,176.490000L614.840000,176.490000C614.805836,176.520557,614.754164,176.520557,614.720000,176.490000C614.705737,176.461695,614.705737,176.428305,614.720000,176.400000C615.964392,174.597906,616.553785,172.423856,616.390000,170.240000C616.179297,168.061442,615.294974,166.002682,613.860000,164.350000C613.842274,164.333024,613.832249,164.309544,613.832249,164.285000C613.832249,164.260456,613.842274,164.236976,613.860000,164.220000C613.884752,164.205709,613.915248,164.205709,613.940000,164.220000Z" fill="rgb(0,0,0)" stroke="none" stroke-width="1"/><path id="ekoz19un45q49" d="M530,264.120000C532.479881,264.602334,534.851643,265.530709,537,266.860000C538.090297,267.511889,539.132920,268.240388,540.120000,269.040000C541.098454,269.856770,542.033089,270.724646,542.920000,271.640000C543.775548,272.594268,544.576810,273.595846,545.320000,274.640000C546.064636,275.676864,546.733058,276.766391,547.320000,277.900000C548.504901,280.146931,549.273929,282.589526,549.590000,285.110000L549.590000,285.110000C549.587275,285.162400,549.550823,285.206953,549.500000,285.220000C549.456465,285.227222,549.414115,285.201812,549.400000,285.160000C545.553097,276.131331,538.649227,268.745960,529.900000,264.300000C529.861886,264.261116,529.861886,264.198884,529.900000,264.160000C529.917684,264.122139,529.959101,264.101431,530,264.110000Z" transform="matrix(0.99877337431039 0.04951511656699 -0.04951511656699 0.99877337431039 14.26209972951506 -26.38791816267985)" fill="rgb(0,0,0)" stroke="none" stroke-width="1"/><path id="ekoz19un45q50" d="M561.760000,126C561.969967,128.061556,562.303904,130.108595,562.760000,132.130000C563.194757,134.140984,563.769489,136.119134,564.480000,138.050000C565.827249,141.948795,567.722953,145.635822,570.110000,149C573.607552,154.069765,578.064911,158.404819,583.230000,161.760000C584.957353,162.904268,586.750443,163.946063,588.600000,164.880000C588.619057,164.899442,588.619057,164.930558,588.600000,164.950000C588.581014,164.959006,588.558986,164.959006,588.540000,164.950000C580.754729,161.792048,574.056003,156.437932,569.260000,149.540000C568.640000,148.700000,568.130000,147.790000,567.570000,146.910000C567.010000,146.030000,566.570000,145.090000,566.100000,144.150000C565.172326,142.278334,564.386776,140.339530,563.750000,138.350000C562.472525,134.375953,561.758904,130.242334,561.630000,126.070000Z" fill="rgb(255,255,255)" stroke="none" stroke-width="1"/><path id="ekoz19un45q51" d="M615.740000,194.290000C614.630000,195.790000,613.520000,197.290000,612.560000,198.850000C609.572356,203.476466,607.315851,208.535894,605.870000,213.850000C605.388291,215.610759,605.004371,217.396822,604.720000,219.200000C604.440000,221.010000,604.320000,222.840000,604.200000,224.670000C604.090068,226.505022,604.090068,228.344978,604.200000,230.180000C604.270000,232.030000,604.520000,233.860000,604.760000,235.710000L604.760000,235.710000C604.760000,235.737614,604.737614,235.760000,604.710000,235.760000C604.682386,235.760000,604.660000,235.737614,604.660000,235.710000C603.784610,232.082414,603.354772,228.361629,603.380000,224.630000C603.411629,220.896143,603.908799,217.180805,604.860000,213.570000C606.843699,206.346948,610.530037,199.704682,615.610000,194.200000Z" fill="rgb(255,255,255)" stroke="none" stroke-width="1"/><path id="ekoz19un45q52" d="M614.610000,239.920000C615.884586,239.955434,617.160151,239.915364,618.430000,239.800000C619.683848,239.712990,620.930163,239.539240,622.160000,239.280000C624.610142,238.817512,626.992240,238.048118,629.250000,236.990000C631.542824,235.986941,633.719091,234.736175,635.740000,233.260000C636.781922,232.535289,637.783419,231.754122,638.740000,230.920000C639.740000,230.130000,640.650000,229.240000,641.600000,228.360000L641.600000,228.360000C641.600000,228.360000,641.660000,228.360000,641.670000,228.360000C638.473910,232.422450,634.361879,235.670954,629.670000,237.840000C627.322558,238.898017,624.838384,239.621726,622.290000,239.990000C619.741499,240.379970,617.148501,240.379970,614.600000,239.990000C612.051499,239.600030,614.600000,239.990000,614.600000,239.940000C614.600000,239.890000,614.600000,239.890000,614.650000,239.890000Z" fill="rgb(255,255,255)" stroke="none" stroke-width="1"/><path id="ekoz19un45q53" d="M685.250000,365.410000C681.370000,357.140000,681.100000,347.250000,678.250000,338.560000C675,329.110000,670.850000,320,666.700000,311C665.919929,309.093080,664.384992,307.594344,662.460000,306.860000C662.108449,305.604590,661.498787,304.436357,660.670000,303.430000Q650.860000,291.310000,640.180000,279.990000C640.111465,279.637385,639.982934,279.299144,639.800000,278.990000C636.562784,273.730681,632.701419,268.882149,628.300000,264.550000C627.342415,263.648122,625.963710,263.351585,624.720000,263.780000C623.476290,264.208415,624.720000,263.730000,624.720000,263.710000C624.743325,263.671016,624.770099,263.634202,624.800000,263.600000C620.594446,259.492212,615.734766,256.112740,610.420000,253.600000L610.100000,253.460000C607.116175,251.224835,603.661949,249.699504,600,249L599.510000,248.770000C597.217648,247.679445,594.761533,246.973354,592.240000,246.680000C589.910952,246.480008,587.569048,246.480008,585.240000,246.680000L585.240000,246.680000L585.160000,246.680000C579.999746,245.423788,574.551154,246.293303,570.038198,249.093216C565.525241,251.893130,562.326305,256.388685,561.160000,261.570000C561.055140,262.074610,561.055140,262.595390,561.160000,263.100000C558.924219,269.548948,557.775247,276.324503,557.760000,283.150000C557.749645,283.296484,557.749645,283.443516,557.760000,283.590000C557.610099,285.567129,557.978925,287.549140,558.830000,289.340000C559.182778,290.102380,559.608070,290.829060,560.100000,291.510000C560.500000,293.120000,560.900000,294.730000,561.350000,296.320000C561.864618,298.101776,563.705597,299.148694,565.500000,298.680000C566.803905,298.273070,567.757359,297.152275,567.950000,295.800000C568.367695,295.983649,568.814576,296.091983,569.270000,296.120000C572.175800,296.395244,575.102863,296.355010,578,296C580.515817,295.474723,582.962180,294.659269,585.290000,293.570000C589.810000,291.790000,594.680000,291.310000,599.290000,289.670000C600.031454,289.800425,600.795063,289.658358,601.440000,289.270000C602.550000,288.610000,603.680000,288.010000,604.830000,287.430000Q607.650000,295,610.020000,302.730000C610.079213,303.257021,610.179518,303.778608,610.320000,304.290000Q613.160000,314.060000,615.190000,323.990000C615.030220,325.261137,615.153147,326.551875,615.550000,327.770000C616.330000,330.330000,617.270000,332.960000,618.190000,335.640000C618.152497,335.723885,618.122383,335.810881,618.100000,335.900000C617.562660,337.928814,617.457051,340.047811,617.790000,342.120000C618.119474,343.654855,618.612281,345.150037,619.260000,346.580000C619.550000,347.700000,619.840000,348.810000,620.110000,349.930000C620.270000,351.250000,620.290000,352.590000,620.340000,353.930000C620.430000,356.210000,620.510000,358.480000,620.600000,360.750000C620.589627,360.849731,620.589627,360.950269,620.600000,361.050000C620.592834,361.851215,620.742301,362.646110,621.040000,363.390000C622.130773,366.031873,623.029767,368.748908,623.730000,371.520000C623.550925,371.677374,623.383798,371.847844,623.230000,372.030000C622.556728,372.488180,622.053941,373.156218,621.800000,373.930000Q620.140000,378.810000,618.460000,383.680000Q617.640000,386.120000,616.790000,388.560000C616.670000,388.920000,616.540000,389.280000,616.410000,389.640000L616.280000,389.770000C615.910000,390.120000,615.520000,390.460000,615.120000,390.770000L615.120000,390.770000L614.970000,390.860000L614.340000,391.290000C613.910000,391.570000,613.470000,391.830000,613.020000,392.080000L612.340000,392.430000C612.210000,392.490000,611.390000,392.850000,612.020000,392.580000C610.419909,393.064128,609.401896,394.631277,609.610000,396.290000C609.825535,397.955363,611.240758,399.203839,612.920000,399.210000C614.500000,399.140000,616.070000,399.050000,617.650000,398.940000C617.913789,399.017355,618.185550,399.064326,618.460000,399.080000C621.568146,399.245089,624.684470,399.164841,627.780000,398.840000C629.149393,400.406458,630.963074,401.519082,632.980000,402.030000C639.140000,403.780000,646.840000,401.970000,652.980000,400.880000C660.750000,399.500000,668.110000,397.880000,676.060000,398.780000C676.889134,398.872947,677.728458,398.801587,678.530000,398.570000C686.220000,398.570000,695.930000,398.500000,696.430000,388.360000C696.760000,380.170000,688.520000,372.380000,685.250000,365.410000Z" transform="matrix(0.99877337431039 0.04951511656699 -0.04951511656699 0.99877337431039 16.83381780951220 -30.65214846486742)" fill="rgb(249,110,16)" stroke="none" stroke-width="1"/><path id="ekoz19un45q54" d="M556.840000,246.460000C556.293552,244.685475,554.881263,243.311241,553.092477,242.813456C551.303691,242.315672,549.384544,242.762832,548,244C546.590200,243.925208,545.221196,244.486756,544.270000,245.530000L538.170000,252.530000C537.826562,252.930288,537.537404,253.374113,537.310000,253.850000C535.240000,255.590000,534.310000,258.370000,535.780000,260.850000C535.918686,261.081624,536.079433,261.299303,536.260000,261.500000C536.521342,262.439802,537.049276,263.283802,537.780000,263.930000C539.862801,265.853356,542.177326,267.509468,544.670000,268.860000L544.730000,268.970000C546.010000,270.630000,547.260000,272.310000,548.520000,273.970000C548.995155,274.744881,549.918434,275.121482,550.800000,274.900000C551.320488,274.731955,551.759258,274.375232,552.030000,273.900000C552.196243,273.814062,552.348067,273.702724,552.480000,273.570000C552.848097,273.183577,553.058523,272.673560,553.070000,272.140000L553.070000,269.070000C553.074939,269.000087,553.074939,268.929913,553.070000,268.860000C553.885100,264.264188,555.106560,259.749804,556.720000,255.370000C556.865491,254.958307,556.843953,254.506005,556.660000,254.110000C557.529783,251.643620,557.592820,248.964559,556.840000,246.460000Z" transform="matrix(0.99982117283033 0.01891090585285 -0.01891090585285 0.99982117283033 2.02313201017830 -7.45283578717419)" fill="rgb(249,110,16)" stroke="none" stroke-width="1"/><path id="ekoz19un45q55" d="M190.360000,40.690000C189.585083,42.097111,189.169458,43.673738,189.150000,45.280000C189.118382,46.081388,189.151825,46.884020,189.250000,47.680000C189.239034,48.414274,189.545159,49.117631,190.090000,49.610000C190.772016,49.928789,191.517216,50.089451,192.270000,50.080000C193.070000,50.150000,193.870000,50.200000,194.670000,50.240000C196.259773,50.315200,197.852622,50.295164,199.440000,50.180000C202.500701,49.993789,205.486782,49.158641,208.200000,47.730000C209.483927,47.036844,210.665237,46.168530,211.710000,45.150000C212.750615,44.178264,213.616543,43.034968,214.270000,41.770000C214.933372,40.575383,215.332373,39.252200,215.440000,37.890000C215.603123,36.742556,215.235090,35.583250,214.440000,34.740000C213.457853,33.771714,212.236242,33.081538,210.900000,32.740000C209.420076,32.321524,207.896512,32.076546,206.360000,32.010000C205.574023,31.966282,204.786319,31.962945,204,32C203.239560,32.041787,202.485515,32.162434,201.750000,32.360000C200.218683,32.764416,198.748805,33.373221,197.380000,34.170000C194.565403,35.768658,192.161894,38.000977,190.360000,40.690000ZM190.190000,40.580000C191.997366,37.860406,194.358937,35.553358,197.120000,33.810000C198.485725,32.915406,199.956904,32.193252,201.500000,31.660000C203.060871,31.162107,204.691777,30.918990,206.330000,30.940000C207.961446,30.901836,209.591936,31.049452,211.190000,31.380000C212.823517,31.669516,214.349707,32.391176,215.610000,33.470000C216.849298,34.637033,217.492841,36.302891,217.360000,38C217.245077,39.645381,216.781486,41.247497,216,42.700000C214.414840,45.578329,211.966518,47.886747,209,49.300000C206.012835,50.649312,202.767619,51.331797,199.490000,51.300000C197.866115,51.305072,196.243330,51.214917,194.630000,51.030000C193.820000,50.930000,193.020000,50.830000,192.210000,50.700000C191.380550,50.647968,190.573676,50.408641,189.850000,50C189.228011,49.408102,188.889444,48.578067,188.920000,47.720000C188.869990,46.907435,188.869990,46.092565,188.920000,45.280000C188.955365,43.633444,189.391262,42.020283,190.190000,40.580000Z" fill="rgb(0,0,0)" stroke="none" stroke-width="1"/><path id="ekoz19un45q56" d="M228.530000,54.090000L230.460000,58.570000C231.090000,60.040000,231.760000,61.490000,232.460000,62.920000L231,62C232.577785,61.723717,234.122700,61.284707,235.610000,60.690000C235.980000,60.550000,236.350000,60.400000,236.710000,60.240000C237.023927,60.112449,237.328076,59.962046,237.620000,59.790000C237.700000,59.790000,237.700000,59.720000,237.620000,59.790000C237.580961,59.830196,237.550361,59.877797,237.530000,59.930000C237.531057,59.728917,237.514325,59.528135,237.480000,59.330000C237.214873,57.727842,236.833873,56.147027,236.340000,54.600000C235.827466,53.025373,235.205964,51.488327,234.480000,50L235.900000,50.570000C235.304610,50.656917,234.716374,50.787265,234.140000,50.960000C233.551191,51.154469,232.973635,51.381485,232.410000,51.640000C231.234648,52.202676,230.141293,52.922609,229.160000,53.780000L229,53.660000C230.604050,51.460813,232.917426,49.882066,235.550000,49.190000L235.650000,49.190000L235.650000,49.280000C237.493489,52.248381,238.755897,55.540144,239.370000,58.980000C239.477068,59.425480,239.494067,59.887860,239.420000,60.340000C239.307085,60.818926,238.998837,61.228715,238.570000,61.470000C237.791116,61.866954,236.981898,62.201341,236.150000,62.470000C234.497936,63.041959,232.781656,63.408054,231.040000,63.560000L231,63.560000L231,63.450000C229.870852,60.412347,229.001075,57.284496,228.400000,54.100000Z" fill="rgb(0,0,0)" stroke="none" stroke-width="1"/><path id="ekoz19un45q57" d="M471.600000,77.600000C471.490000,78.080000,471.450000,78.650000,471.870000,78.900000C472.322051,79.100770,472.816730,79.186652,473.310000,79.150000L476.420000,79.270000C478.490000,79.330000,480.560000,79.270000,482.630000,79.270000C486.770000,79.190000,490.910000,78.980000,495.030000,78.710000L498.130000,78.490000L499.670000,78.370000L500.440000,78.310000C500.618891,78.308807,500.796934,78.285292,500.970000,78.240000C501.030000,78.240000,500.870000,78.240000,500.850000,78.240000C500.830000,78.240000,500.850000,78.160000,500.910000,77.980000L501.160000,76.510000L501.650000,73.510000C502,71.510000,502.270000,69.450000,502.560000,67.430000C502.850000,65.410000,503.100000,63.370000,503.320000,61.330000L503.460000,60.110000C503.475566,60.196486,503.502465,60.280544,503.540000,60.360000C503.605891,60.504626,503.705305,60.631464,503.830000,60.730000C504.030000,60.860000,503.990000,60.790000,503.830000,60.730000L500.830000,59.980000C498.830000,59.460000,496.830000,58.930000,494.880000,58.500000C492.917725,58.024885,490.931592,57.654363,488.930000,57.390000C486.992010,57.102436,485.020541,57.126066,483.090000,57.460000L482.400000,57.620000C482.180000,57.690000,481.980000,57.790000,481.760000,57.870000C481.331683,58.039236,480.922691,58.253789,480.540000,58.510000C479.755373,59.078220,479.052185,59.751128,478.450000,60.510000C477.190607,62.109111,476.142013,63.863490,475.330000,65.730000C474.493922,67.615805,473.779134,69.553081,473.190000,71.530000C472.540000,73.570000,472.050000,75.580000,471.600000,77.600000ZM471.400000,77.600000C472.191814,73.506686,473.342937,69.491143,474.840000,65.600000C475.600210,63.659309,476.583478,61.813584,477.770000,60.100000C478.078145,59.676495,478.412112,59.272395,478.770000,58.890000C479.133698,58.509647,479.517586,58.149127,479.920000,57.810000C480.340781,57.491229,480.793148,57.216458,481.270000,56.990000C481.510000,56.890000,481.750000,56.760000,481.990000,56.670000L482.750000,56.450000C484.795292,55.963013,486.906040,55.811039,489,56C491.073650,56.158162,493.136857,56.431921,495.180000,56.820000C497.180000,57.200000,499.240000,57.660000,501.260000,58.140000L504.260000,58.850000C504.543268,58.898663,504.812719,59.007808,505.050000,59.170000C505.300560,59.369776,505.450515,59.669687,505.460000,59.990000C505.440382,60.518714,505.393654,61.046074,505.320000,61.570000Q504.600000,67.750000,503.380000,73.860000L502.740000,76.860000L502.390000,78.380000C502.329309,78.653746,502.213637,78.912309,502.050000,79.140000C501.870358,79.381372,501.605951,79.545733,501.310000,79.600000C499.180000,79.760000,497.150000,79.740000,495.070000,79.790000Q488.840000,79.870000,482.640000,79.700000Q479.530000,79.620000,476.430000,79.490000L473.320000,79.330000C472.781951,79.363169,472.244487,79.256366,471.760000,79.020000C471.521880,78.852568,471.368534,78.589690,471.340000,78.300000C471.329283,78.051801,471.349437,77.803231,471.400000,77.560000Z" transform="matrix(1 0 0 1 8.53896099999997 -9.80484307499997)" fill="rgb(0,0,0)" stroke="none" stroke-width="1"/><path id="ekoz19un45q58" d="M716.580000,67.560000C715.828477,68.758810,715.429918,70.145104,715.430000,71.560000C715.408343,72.274096,715.431723,72.988846,715.500000,73.700000C715.483434,74.367682,715.616699,75.030590,715.890000,75.640000C716.350221,76.093600,716.941449,76.390963,717.580000,76.490000C718.238040,76.689449,718.905518,76.856319,719.580000,76.990000C720.951442,77.244183,722.345636,77.354780,723.740000,77.320000C726.469142,77.243091,729.159376,76.652800,731.670000,75.580000C732.899433,75.069732,734.080799,74.450602,735.200000,73.730000C736.302219,73.040771,737.327990,72.236245,738.260000,71.330000C738.667466,70.953903,739.020829,70.523136,739.310000,70.050000C739.558824,69.669540,739.690915,69.224601,739.690000,68.770000C739.790136,67.805181,739.417598,66.851485,738.690000,66.210000C737.766800,65.352134,736.691771,64.673882,735.520000,64.210000C734.245085,63.667902,732.927186,63.233062,731.580000,62.910000C730.227754,62.553324,728.850505,62.299268,727.460000,62.150000C726.068225,62.058800,724.671561,62.224908,723.340000,62.640000C721.979591,63.056015,720.696094,63.691008,719.540000,64.520000C718.403679,65.376002,717.405401,66.401260,716.580000,67.560000ZM716.410000,67.440000C718.117263,65.064438,720.495781,63.253560,723.240000,62.240000C724.604216,61.718317,726.049587,61.440752,727.510000,61.420000C728.959438,61.451090,730.404057,61.598228,731.830000,61.860000C733.260235,62.084591,734.671067,62.418911,736.050000,62.860000C737.457639,63.322252,738.764283,64.048542,739.900000,65C741.083121,65.981525,741.732113,67.464935,741.650000,69C741.547975,70.503496,740.849556,71.903936,739.710000,72.890000C735.369638,76.877179,729.592474,78.924462,723.710000,78.560000C721.530890,78.449872,719.383580,77.990699,717.350000,77.200000C716.618514,77.017823,715.963738,76.608150,715.480000,76.030000C715.198319,75.339615,715.078588,74.593863,715.130000,73.850000C715.130000,73.130000,715.130000,72.410000,715.130000,71.680000C715.144763,70.173699,715.588794,68.702847,716.410000,67.440000Z" fill="rgb(0,0,0)" stroke="none" stroke-width="1"/><path id="ekoz19un45q59" d="M122,136C122,135.400000,121.890000,134.750000,121.860000,134.070000L121.750000,132.230000L121.550000,128.550000C121.410000,126.100000,121.230000,123.650000,121.030000,121.210000L120.440000,113.880000C120.230000,111.440000,119.980000,109.010000,119.710000,106.570000L119.610000,105.720000L120.430000,105.270000C122.636954,104.078729,124.958778,103.113815,127.360000,102.390000C129.730000,101.680000,132.110000,101.120000,134.440000,100.550000C139.090000,99.400000,143.670000,98.290000,147.530000,95.980000L149.530000,94.790000L150.160000,97.060000C151.670000,102.540000,152.870000,108.060000,153.980000,113.680000C154.540000,116.460000,154.980000,119.270000,155.440000,122.070000L156.070000,126.290000L156.370000,128.400000C156.429247,128.817398,156.459319,129.238419,156.460000,129.660000C156.453919,130.124256,156.400306,130.586669,156.300000,131.040000C156.181672,131.614727,155.927988,132.152948,155.560000,132.610000C155.440065,132.746602,155.309671,132.873653,155.170000,132.990000L154.840000,133.220000C154.626477,133.357425,154.402449,133.477798,154.170000,133.580000C153.398501,133.885680,152.586693,134.077685,151.760000,134.150000C150.320000,134.340000,148.890000,134.490000,147.460000,134.590000C144.610000,134.800000,141.770000,134.880000,138.940000,134.960000C136.110000,135.040000,133.300000,134.960000,130.490000,135.150000C129.080000,135.220000,127.680000,135.320000,126.290000,135.470000C125.580000,135.530000,124.890000,135.620000,124.190000,135.700000ZM122.120000,135.840000C122.800000,135.670000,123.420000,135.500000,124.120000,135.370000C124.820000,135.240000,125.510000,135.100000,126.210000,135C127.610000,134.780000,129.010000,134.600000,130.420000,134.470000C133.240000,134.190000,136.060000,134.020000,138.880000,133.860000C141.700000,133.700000,144.520000,133.530000,147.320000,133.240000C148.730000,133.100000,150.120000,132.900000,151.510000,132.680000C152.197634,132.600675,152.870810,132.425649,153.510000,132.160000C153.814587,132.029116,154.089971,131.838727,154.320000,131.600000C154.514365,131.333312,154.644420,131.025286,154.700000,130.700000C154.823602,130.039062,154.823602,129.360938,154.700000,128.700000L154.380000,126.610000L153.680000,122.430000C153.200000,119.650000,152.680000,116.870000,152.110000,114.110000C150.990000,108.570000,149.690000,103.110000,148.260000,97.610000L148.550000,97.730000C144.330000,100.200000,139.550000,101.330000,134.870000,102.380000C130.190000,103.430000,125.420000,104.440000,121.140000,106.640000L121.220000,106.500000Q121.810000,113.850000,122.050000,121.220000C122.130000,123.680000,122.190000,126.140000,122.210000,128.600000L122.210000,132.280000L122.210000,134.130000C122.200000,134.630000,122.170000,135.210000,122.140000,135.810000Z" fill="rgb(0,0,0)" stroke="none" stroke-width="1"/><path id="ekoz19un45q60" d="M124.880000,119.280000C127.302170,118.979877,129.646265,118.226782,131.790000,117.060000L131.730000,117.120000C131.788761,117.000785,131.893428,116.910554,132.020000,116.870000C132.145778,116.850828,132.274180,116.879362,132.380000,116.950000C132.543826,117.049951,132.678360,117.191384,132.770000,117.360000C132.877327,117.518528,132.945840,117.700088,132.970000,117.890000L132.970000,118.400000C133.030000,119.060000,133.070000,119.730000,133.100000,120.400000C133.150000,121.730000,133.170000,123.060000,133.170000,124.400000C133.170000,127.060000,133.170000,129.720000,133.370000,132.340000C133.470721,133.640980,133.637604,134.935989,133.870000,136.220000C134.010000,136.850000,134.130000,137.480000,134.310000,138.100000C134.490000,138.720000,134.680000,139.320000,134.850000,140.050000C135.080161,140.860646,135.080161,141.719354,134.850000,142.530000C134.572921,143.370457,134.037449,144.101919,133.320000,144.620000C132.093683,145.467470,130.704099,146.049869,129.240000,146.330000C123.960000,147.730000,118.590000,148.220000,113.460000,149.090000C110.927140,149.472279,108.429099,150.057496,105.990000,150.840000C103.619479,151.569192,101.373760,152.654960,99.330000,154.060000L97.330000,151.250000C97.110674,151.410604,96.935288,151.623817,96.820000,151.870000C96.820000,152.010000,96.820000,151.870000,96.820000,151.940000C96.824490,151.860063,96.824490,151.779937,96.820000,151.700000C96.820000,151.500000,96.820000,151.230000,96.820000,150.980000C96.820000,150.450000,96.820000,149.890000,96.820000,149.330000C96.820000,148.210000,96.700000,147.070000,96.610000,145.920000C96.430000,143.620000,96.260000,141.360000,96.120000,138.920000C96.120000,136.590000,95.930000,134.320000,95.930000,131.920000C95.919254,130.717235,95.982708,129.514952,96.120000,128.320000C96.226605,127.015081,96.648716,125.755612,97.350000,124.650000C97.795900,124.111306,98.360710,123.683419,99,123.400000C99.566907,123.124989,100.159845,122.907243,100.770000,122.750000C101.925947,122.466903,103.103269,122.279602,104.290000,122.190000C106.640000,121.970000,108.930000,122,111.200000,121.560000C115.750000,120.880000,120.310000,120.060000,124.880000,119.280000ZM124.880000,119.480000L111.240000,122C108.970000,122.500000,106.630000,122.550000,104.350000,122.870000C103.206810,123.004961,102.076441,123.232372,100.970000,123.550000C99.866192,123.810850,98.872541,124.412639,98.130000,125.270000C97.570159,126.257902,97.254717,127.365376,97.210000,128.500000C97.144950,129.649080,97.144950,130.800920,97.210000,131.950000C97.300000,134.260000,97.600000,136.560000,97.690000,138.880000L98.430000,145.780000C98.540000,146.930000,98.650000,148.090000,98.720000,149.250000C98.720000,149.830000,98.790000,150.410000,98.800000,150.990000C98.800000,151.280000,98.800000,151.580000,98.800000,151.870000C98.789216,152.024395,98.769180,152.178004,98.740000,152.330000C98.727212,152.522141,98.645548,152.703222,98.510000,152.840000L98.290000,152.530000C100.478157,150.980123,102.893558,149.779169,105.450000,148.970000C107.997790,148.174424,110.606533,147.589130,113.250000,147.220000C118.510000,146.430000,123.830000,146.110000,129.020000,144.980000C130.315262,144.786702,131.557347,144.330703,132.670000,143.640000C133.203606,143.286318,133.610081,142.771217,133.830000,142.170000C134.000288,141.551507,134.000288,140.898493,133.830000,140.280000C133.540000,139.010000,133.200000,137.700000,133.010000,136.380000C132.820000,135.060000,132.720000,133.730000,132.660000,132.380000C132.570000,129.710000,132.660000,127.050000,132.760000,124.380000C132.760000,123.050000,132.820000,121.730000,132.760000,120.380000C132.760000,119.720000,132.760000,119.060000,132.690000,118.380000C132.714628,118.064762,132.648710,117.749047,132.500000,117.470000C132.360000,117.220000,132.030000,116.950000,131.950000,117.200000L131.950000,117.200000L131.950000,117.200000C129.767849,118.396546,127.379306,119.170108,124.910000,119.480000Z" fill="rgb(0,0,0)" stroke="none" stroke-width="1"/><path id="ekoz19un45q61" d="M98.560000,133.840000C98.699392,132.532777,99.057727,131.258323,99.620000,130.070000C100.618821,127.796921,102.075856,125.754348,103.900000,124.070000C104.839071,123.153968,105.923848,122.400368,107.110000,121.840000L107.280000,121.950000C105.920000,123.950000,104.480000,125.950000,103.080000,128.010000C101.680000,130.070000,100.220000,132.010000,98.720000,134.010000Z" fill="rgb(0,0,0)" stroke="none" stroke-width="1"/><path id="ekoz19un45q62" d="M99.930000,137.870000C100.249327,136.572499,100.758126,135.329141,101.440000,134.180000C101.745979,133.626819,102.079739,133.089466,102.440000,132.570000C102.800000,132.060000,103.190000,131.570000,103.560000,131.070000C103.930000,130.570000,104.370000,130.120000,104.790000,129.670000C105.210000,129.220000,105.660000,128.760000,106.160000,128.360000C107.144983,127.453831,108.256640,126.695883,109.460000,126.110000L109.620000,126.220000Q107.460000,129.340000,105.110000,132.330000C103.490000,134.270000,101.820000,136.170000,100.110000,138.010000Z" fill="rgb(0,0,0)" stroke="none" stroke-width="1"/><path id="ekoz19un45q63" d="M119.300000,124.680000C118.575347,126.279054,117.712049,127.811575,116.720000,129.260000C116.280000,129.990000,115.720000,130.640000,115.300000,131.350000L113.810000,133.350000L112.250000,135.350000C111.690000,135.980000,111.190000,136.650000,110.600000,137.270000C109.461939,138.602365,108.210595,139.833634,106.860000,140.950000L106.690000,140.860000C108.307028,137.825381,110.155851,134.920087,112.220000,132.170000C114.339097,129.459664,116.658968,126.912485,119.160000,124.550000Z" fill="rgb(0,0,0)" stroke="none" stroke-width="1"/><path id="ekoz19un45q64" d="M108.800000,144C109.310592,141.958278,110.038061,139.977014,110.970000,138.090000C111.380000,137.140000,111.900000,136.260000,112.370000,135.340000C112.840000,134.420000,113.370000,133.580000,113.940000,132.700000C115.047282,130.956169,116.266508,129.285997,117.590000,127.700000C118.934590,125.967308,120.725181,124.633007,122.770000,123.840000L122.890000,124C121.310183,125.292503,119.958127,126.840607,118.890000,128.580000C117.780000,130.290000,116.720000,132.050000,115.630000,133.790000L109,144.140000Z" fill="rgb(0,0,0)" stroke="none" stroke-width="1"/><path id="ekoz19un45q65" d="M114.390000,143.380000C114.850354,141.638037,115.522006,139.958907,116.390000,138.380000C116.780000,137.580000,117.270000,136.860000,117.720000,136.090000C118.170000,135.320000,118.720000,134.650000,119.200000,133.920000C119.680000,133.190000,120.270000,132.530000,120.830000,131.860000C121.390000,131.190000,121.970000,130.530000,122.610000,129.860000C123.856784,128.543153,125.260634,127.384473,126.790000,126.410000L126.950000,126.530000L120.810000,135.060000L114.510000,143.470000Z" fill="rgb(0,0,0)" stroke="none" stroke-width="1"/><path id="ekoz19un45q66" d="M122.360000,143.250000C122.493509,142.194129,122.833285,141.174802,123.360000,140.250000C123.799992,139.382742,124.355000,138.578821,125.010000,137.860000C125.663009,137.137301,126.409609,136.505046,127.230000,135.980000C128.109149,135.375331,129.097492,134.947388,130.140000,134.720000L130.290000,134.860000C129.060000,136.340000,127.760000,137.750000,126.500000,139.200000C125.240000,140.650000,123.910000,142.050000,122.560000,143.420000Z" fill="rgb(0,0,0)" stroke="none" stroke-width="1"/><path id="ekoz19un45q67" d="M101.240000,149.310000C101.319187,148.173694,101.607344,147.061749,102.090000,146.030000C102.515438,145.069144,103.059683,144.165427,103.710000,143.340000C104.344384,142.502203,105.083769,141.749375,105.910000,141.100000C106.798608,140.365713,107.815855,139.802836,108.910000,139.440000L109.070000,139.560000C107.860000,141.260000,106.570000,142.890000,105.330000,144.560000C104.090000,146.230000,102.780000,147.840000,101.440000,149.440000Z" fill="rgb(0,0,0)" stroke="none" stroke-width="1"/><path id="ekoz19un45q68" d="M99.350000,145C99.607475,143.032132,100.087204,141.099794,100.780000,139.240000C101.070000,138.310000,101.480000,137.440000,101.780000,136.530000C102.080000,135.620000,102.620000,134.770000,103.060000,133.890000C103.500000,133.010000,104.060000,132.180000,104.620000,131.350000C105.195636,130.521296,105.827100,129.732801,106.510000,128.990000C107.865368,127.451392,109.555281,126.243823,111.450000,125.460000L111.580000,125.610000C110.152924,126.893162,108.877907,128.335945,107.780000,129.910000C106.678413,131.489323,105.676466,133.135857,104.780000,134.840000C102.950000,138.220000,101.220000,141.670000,99.440000,145.090000Z" fill="rgb(0,0,0)" stroke="none" stroke-width="1"/><path id="ekoz19un45q69" d="M624.570000,41.580000C628.970000,41.320000,633.140000,41.120000,637.280000,40.830000C641.420000,40.540000,645.360000,40.450000,649.340000,40.290000L650.080000,40.290000C650.283206,40.300190,650.486794,40.300190,650.690000,40.290000C650.820000,40.290000,650.800000,40.230000,650.690000,40.290000C650.580000,40.350000,650.580000,40.410000,650.610000,40.290000L651.220000,37.450000L652.520000,31.450000C653.380000,27.450000,654.330000,23.450000,655.240000,19.380000L657,21.460000L649.410000,21.310000L641.810000,21.210000L626.570000,21L627.810000,19.650000C627.849302,21.540349,627.762443,23.431215,627.550000,25.310000C627.350000,27.170000,627.080000,29.010000,626.710000,30.820000ZM624.420000,41.710000C624.420000,41.240000,624.470000,40.710000,624.520000,40.260000L624.670000,38.890000L625.020000,36.160000L625.770000,30.700000C626.337732,27.062626,626.545403,23.378132,626.390000,19.700000L626.390000,19.550000L626.540000,19.550000Q641.780000,19.130000,657.010000,19.430000L657.260000,19.430000L657.200000,19.670000L654.350000,31.740000L652.920000,37.740000C652.660000,38.740000,652.490000,39.740000,652.170000,40.740000C652.068769,41.010968,651.895974,41.249425,651.670000,41.430000C651.430282,41.585844,651.155129,41.678708,650.870000,41.700000C650.330000,41.700000,649.820000,41.700000,649.300000,41.700000Z" fill="rgb(0,0,0)" stroke="none" stroke-width="1"/><path id="ekoz19un45q70" d="M641,0.200000C641,0.800000,641.160000,1.260000,641.170000,1.690000L641.230000,3.290000C641.230000,4.350000,641.230000,5.410000,641.230000,6.480000Q641.230000,9.660000,641.010000,12.860000Q640.500000,19.240000,639.400000,25.560000C639.343745,25.990838,639.200877,26.405835,638.980000,26.780000C638.685840,27.258916,638.248557,27.633230,637.730000,27.850000C637.089233,28.091651,636.414164,28.230040,635.730000,28.260000L632.560000,28.520000L626.240000,29.030000L619.910000,29.470000L616.740000,29.680000L615.160000,29.790000C614.827014,29.811528,614.492986,29.811528,614.160000,29.790000C613.851487,29.770105,613.547903,29.702642,613.260000,29.590000C612.869209,29.432301,612.525048,29.177622,612.260000,28.850000C611.840120,28.333113,611.613774,27.685907,611.620000,27.020000L611.620000,26.200000C611.620000,25.710000,611.620000,25.200000,611.550000,24.690000L611.340000,21.540000C611.190000,19.430000,611.030000,17.280000,611.030000,15.110000C610.984286,12.885366,611.155090,10.661559,611.540000,8.470000C611.753364,7.269286,612.151415,6.108864,612.720000,5.030000C613.059647,4.423848,613.495296,3.876755,614.010000,3.410000C614.295541,3.154540,614.607271,2.929960,614.940000,2.740000C615.276276,2.581263,615.633045,2.470194,616,2.410000C617.102574,2.232998,618.214405,2.119478,619.330000,2.070000L622.520000,1.930000L628.870000,1.730000C630.980000,1.730000,633.090000,1.650000,635.180000,1.510000C636.230000,1.440000,637.270000,1.340000,638.300000,1.180000C638.814096,1.117202,639.322371,1.013540,639.820000,0.870000C640.060054,0.803665,640.291602,0.709703,640.510000,0.590000C640.614953,0.537005,640.709738,0.465916,640.790000,0.380000C640.831749,0.343844,640.865763,0.299626,640.890000,0.250000C640.914237,0.200374,640.890000,0.190000,640.890000,0.250000C640.890000,0.310000,641,0.250000,641,0.200000ZM641,0C641,0,641.090000,0.100000,641.080000,0.190000C641.088909,0.236241,641.088909,0.283759,641.080000,0.330000C641.051087,0.400647,641.014180,0.467750,640.970000,0.530000C640.877883,0.638759,640.770024,0.733135,640.650000,0.810000C640.426251,0.962679,640.184398,1.086964,639.930000,1.180000C639.428982,1.369318,638.914126,1.519763,638.390000,1.630000C637.390000,1.860000,636.310000,2.020000,635.260000,2.160000C633.150000,2.430000,631.050000,2.610000,628.940000,2.780000L622.610000,3.240000C620.505685,3.350146,618.409119,3.577162,616.330000,3.920000C616.084682,3.966815,615.846171,4.044079,615.620000,4.150000C615.403038,4.279841,615.201717,4.434187,615.020000,4.610000C614.650412,4.966573,614.342862,5.382272,614.110000,5.840000C613.650120,6.788046,613.333342,7.799038,613.170000,8.840000C612.850096,10.920432,612.729549,13.026654,612.810000,15.130000C612.860000,17.240000,613.020000,19.350000,613.190000,21.450000L613.430000,24.620000C613.430000,25.150000,613.500000,25.680000,613.510000,26.210000C613.520000,26.740000,613.450000,27.320000,613.710000,27.620000C613.970000,27.920000,614.520000,27.870000,615.040000,27.840000L616.620000,27.750000L619.790000,27.560000L626.120000,27.190000L632.460000,26.810000L635.620000,26.620000C636.131756,26.626302,636.641317,26.552061,637.130000,26.400000C637.587121,26.206450,637.891114,25.766049,637.910000,25.270000Q639.210000,19,640,12.740000C640.250000,10.640000,640.450000,8.530000,640.610000,6.430000C640.690000,5.370000,640.750000,4.320000,640.810000,3.260000L640.880000,1.680000C640.860000,1.120000,641,0.510000,641,0Z" fill="rgb(0,0,0)" stroke="none" stroke-width="1"/><path id="ekoz19un45q71" d="M616.060000,11.830000C616.164471,10.641643,616.529819,9.490966,617.130000,8.460000C617.656190,7.469961,618.330649,6.566187,619.130000,5.780000C619.932938,4.978312,620.853539,4.303879,621.860000,3.780000C622.906007,3.200697,624.066919,2.859252,625.260000,2.780000L625.370000,2.950000C623.671240,4.255868,622.051710,5.661687,620.520000,7.160000C618.988755,8.683613,617.552708,10.300000,616.220000,12Z" fill="rgb(0,0,0)" stroke="none" stroke-width="1"/><path id="ekoz19un45q72" d="M615.770000,17C616.287784,15.622443,617.005473,14.328582,617.900000,13.160000C618.300000,12.570000,618.780000,12.070000,619.220000,11.520000C619.660000,10.970000,620.220000,10.520000,620.680000,10.020000C621.140000,9.520000,621.680000,9.090000,622.270000,8.650000C622.860000,8.210000,623.370000,7.780000,623.980000,7.410000C625.195421,6.582284,626.526457,5.938669,627.930000,5.500000L628.070000,5.640000L622.070000,11.470000L615.920000,17.150000Z" fill="rgb(0,0,0)" stroke="none" stroke-width="1"/><path id="ekoz19un45q73" d="M614.890000,22.310000C615.897870,20.535211,617.073224,18.860917,618.400000,17.310000C619.020000,16.520000,619.710000,15.820000,620.400000,15.070000L622.420000,13C623.150000,12.330000,623.850000,11.640000,624.590000,11C625.330000,10.360000,626.070000,9.680000,626.870000,9.080000C628.422229,7.778198,630.096686,6.629521,631.870000,5.650000L632.010000,5.780000C629.350000,8.780000,626.600000,11.630000,623.790000,14.450000C620.980000,17.270000,618,19.840000,615,22.460000Z" fill="rgb(0,0,0)" stroke="none" stroke-width="1"/><path id="ekoz19un45q74" d="M617.810000,24.410000C618.910170,22.653832,620.140274,20.982494,621.490000,19.410000C622.120000,18.600000,622.810000,17.890000,623.490000,17.110000L625.490000,14.900000L627.570000,12.740000C628.290000,12.040000,628.970000,11.300000,629.730000,10.630000C631.203921,9.183608,632.781445,7.846724,634.450000,6.630000L634.620000,6.750000C632.276632,10.092590,629.714353,13.276231,626.950000,16.280000C624.135238,19.237909,621.128733,22.007235,617.950000,24.570000Z" fill="rgb(0,0,0)" stroke="none" stroke-width="1"/><path id="ekoz19un45q75" d="M621.860000,27.720000C622.829363,25.908819,624.025673,24.228607,625.420000,22.720000C626.050000,21.950000,626.750000,21.280000,627.420000,20.550000C628.090000,19.820000,628.720000,19.170000,629.300000,18.450000C629.905538,17.782381,630.473099,17.081277,631,16.350000C631.600000,15.620000,632.120000,14.800000,632.760000,14.030000C633.958261,12.329626,635.476594,10.879227,637.230000,9.760000L637.380000,9.890000C634.810000,12.890000,633.380000,16.750000,630.770000,19.790000C628.160000,22.830000,624.880000,25.150000,621.990000,27.860000Z" fill="rgb(0,0,0)" stroke="none" stroke-width="1"/><path id="ekoz19un45q76" d="M629.480000,26.830000C629.365844,26.005831,629.448078,25.166349,629.720000,24.380000C629.934787,23.703217,630.273919,23.072431,630.720000,22.520000C631.156259,21.960298,631.691856,21.485718,632.300000,21.120000C632.998295,20.668447,633.793046,20.387543,634.620000,20.300000L634.770000,20.420000C633.990000,21.570000,633.120000,22.640000,632.300000,23.750000C631.480000,24.860000,630.580000,25.920000,629.660000,26.960000Z" fill="rgb(0,0,0)" stroke="none" stroke-width="1"/><path id="ekoz19un45q77" d="M390.460000,38.910000C390.716243,36.800335,390.803187,34.673541,390.720000,32.550000C390.631140,30.447055,390.056094,28.393320,389.040000,26.550000C387.969351,24.787568,386.432907,23.354938,384.600000,22.410000C382.799707,21.438030,380.837886,20.801031,378.810000,20.530000C376.761958,20.257491,374.692632,20.180478,372.630000,20.300000C371.630000,20.350000,370.540000,20.420000,369.480000,20.490000C368.420000,20.560000,367.360000,20.640000,366.480000,20.790000C365.650416,20.906910,364.861361,21.222532,364.180000,21.710000C363.435064,22.232397,362.762557,22.851104,362.180000,23.550000C360.920672,25.107979,359.812350,26.782182,358.870000,28.550000C357.862850,30.289493,357.032055,32.125281,356.390000,34.030000C355.712692,35.730172,355.485369,37.576305,355.730000,39.390000C355.872634,40.115388,356.256859,40.771038,356.820000,41.250000C356.965947,41.379159,357.127144,41.489982,357.300000,41.580000L357.420000,41.670000C357.420000,41.670000,357.420000,41.670000,357.420000,41.670000C357.483799,41.698545,357.551024,41.718713,357.620000,41.730000C358.089514,41.813028,358.563782,41.866467,359.040000,41.890000C361.040000,42,363.220000,41.960000,365.330000,41.890000C369.570000,41.750000,373.830000,41.510000,378.070000,41.120000C380.190000,40.890000,382.300000,40.670000,384.410000,40.340000C385.460000,40.170000,386.510000,39.990000,387.550000,39.770000C388.070000,39.670000,388.550000,39.550000,389.100000,39.420000C389.350000,39.350000,389.610000,39.280000,389.850000,39.190000C390.071873,39.143941,390.280427,39.048211,390.460000,38.910000ZM390.650000,38.910000C390.580000,39.140000,390.430000,39.170000,390.310000,39.250000C390.189880,39.317712,390.062377,39.371398,389.930000,39.410000C389.680000,39.510000,389.420000,39.580000,389.160000,39.660000C388.650000,39.800000,388.160000,39.920000,387.610000,40.040000Q386.030000,40.370000,384.460000,40.640000Q381.310000,41.180000,378.140000,41.640000C373.920000,42.210000,369.680000,42.700000,365.430000,43.050000C363.300000,43.210000,361.180000,43.370000,359.030000,43.360000C358.491956,43.364655,357.954173,43.334592,357.420000,43.270000C357.134023,43.244658,356.857301,43.155834,356.610000,43.010000C356.362071,42.891909,356.127416,42.747763,355.910000,42.580000C355.006825,41.931105,354.359365,40.986450,354.080000,39.910000C353.657557,37.774449,353.830530,35.563852,354.580000,33.520000C355.228121,31.473709,356.086012,29.499887,357.140000,27.630000C358.167321,25.746529,359.376411,23.968061,360.750000,22.320000C361.450001,21.490703,362.268871,20.769559,363.180000,20.180000C364.104582,19.590212,365.150766,19.217552,366.240000,19.090000C367.303237,18.982089,368.371302,18.928686,369.440000,18.930000Q371.040000,18.930000,372.650000,18.930000C374.790349,18.918215,376.926864,19.112444,379.030000,19.510000C381.153394,19.904821,383.186782,20.684286,385.030000,21.810000C386.892102,22.913209,388.425112,24.494557,389.470000,26.390000C390.443571,28.314841,390.973226,30.433460,391.020000,32.590000C391.069226,34.709878,390.945483,36.830239,390.650000,38.930000Z" fill="rgb(0,0,0)" stroke="none" stroke-width="1"/><path id="ekoz19un45q78" d="M358.220000,31.160000C358.413317,29.899045,358.869881,28.692900,359.560000,27.620000C360.190179,26.579727,360.972131,25.639362,361.880000,24.830000C362.774504,24.017249,363.785728,23.343100,364.880000,22.830000C366.012815,22.243721,367.256552,21.902971,368.530000,21.830000L368.640000,22C366.740117,23.326247,364.929541,24.776044,363.220000,26.340000C361.496266,27.896140,359.879275,29.566585,358.380000,31.340000Z" fill="rgb(0,0,0)" stroke="none" stroke-width="1"/><path id="ekoz19un45q79" d="M358.180000,34.370000C358.813884,32.924157,359.652473,31.577025,360.670000,30.370000C361.137328,29.778275,361.634645,29.210866,362.160000,28.670000C362.690000,28.130000,363.240000,27.620000,363.790000,27.110000C364.340000,26.600000,364.930000,26.110000,365.530000,25.680000C366.130000,25.250000,366.740000,24.780000,367.400000,24.400000C368.719156,23.543222,370.148998,22.870355,371.650000,22.400000L371.780000,22.550000L365.110000,28.550000L358.310000,34.450000Z" fill="rgb(0,0,0)" stroke="none" stroke-width="1"/><path id="ekoz19un45q80" d="M357.350000,38.480000C358.633234,36.778831,360.047546,35.180625,361.580000,33.700000C362.300000,32.940000,363.090000,32.270000,363.830000,31.550000L366.160000,29.490000C366.970000,28.850000,367.760000,28.180000,368.580000,27.540000C369.400000,26.900000,370.220000,26.260000,371.100000,25.680000C372.833204,24.427568,374.681514,23.342691,376.620000,22.440000L376.760000,22.590000C373.710000,25.450000,370.630000,28.290000,367.450000,31.020000C364.270000,33.750000,360.920000,36.270000,357.450000,38.640000Z" fill="rgb(0,0,0)" stroke="none" stroke-width="1"/><path id="ekoz19un45q81" d="M359,41.070000C360.368432,39.151720,361.918966,37.370113,363.630000,35.750000C364.440000,34.920000,365.330000,34.180000,366.180000,33.390000C367.030000,32.600000,367.960000,31.920000,368.860000,31.190000C369.760000,30.460000,370.700000,29.800000,371.640000,29.130000C372.580000,28.460000,373.540000,27.810000,374.540000,27.220000C376.529350,25.948826,378.635584,24.870595,380.830000,24L380.950000,24.160000L370.110000,32.770000L359.110000,41.230000Z" fill="rgb(0,0,0)" stroke="none" stroke-width="1"/><path id="ekoz19un45q82" d="M383.300000,25C382.393077,26.467468,381.300740,27.811883,380.050000,29C379.470000,29.610000,378.830000,30.120000,378.240000,30.680000L376.400000,32.250000L372.690000,35.250000C371.460000,36.250000,370.250000,37.250000,368.850000,38.380000L368.670000,38.290000C370.305921,35.370187,372.501051,32.801273,375.130000,30.730000C377.730000,28.650000,380.490000,26.810000,383.180000,24.880000Z" fill="rgb(0,0,0)" stroke="none" stroke-width="1"/><path id="ekoz19un45q83" d="M366.530000,41.340000C367.830000,40.120000,369.010000,39.080000,370.190000,38.020000C370.470000,37.740000,370.760000,37.480000,371.060000,37.230000L371.930000,36.430000C372.520000,35.910000,373.130000,35.430000,373.710000,34.860000L375.570000,33.330000C376.230000,32.840000,376.850000,32.330000,377.570000,31.860000C378.962256,30.845322,380.499531,30.046344,382.130000,29.490000L382.260000,29.640000C379.790000,31.810000,377.510000,34.190000,375.030000,36.380000C372.564575,38.600734,369.709973,40.346720,366.610000,41.530000Z" fill="rgb(0,0,0)" stroke="none" stroke-width="1"/><path id="ekoz19un45q84" d="M378.250000,37.160000C378.660898,36.062434,379.263604,35.046637,380.030000,34.160000C381.427274,32.447279,383.199583,31.078701,385.210000,30.160000C386.273780,29.642321,387.422118,29.320516,388.600000,29.210000L388.720000,29.370000C387.050000,30.770000,385.310000,32.080000,383.610000,33.430000C381.910000,34.780000,380.150000,36.080000,378.370000,37.340000Z" fill="rgb(0,0,0)" stroke="none" stroke-width="1"/><path id="ekoz19un45q85" d="M382.620000,38C382.869485,37.084200,383.305235,36.229722,383.900000,35.490000C384.396729,34.816446,384.993643,34.222904,385.670000,33.730000C386.336539,33.223744,387.074597,32.819329,387.860000,32.530000C388.739231,32.173044,389.681172,31.996218,390.630000,32.010000L390.760000,32.170000C389.520000,33.290000,388.180000,34.300000,386.870000,35.330000C385.560000,36.360000,384.160000,37.330000,382.730000,38.160000Z" fill="rgb(0,0,0)" stroke="none" stroke-width="1"/></g></g><script><![CDATA[!function(t,n){"object"==typeof exports&&"undefined"!=typeof module?module.exports=n():"function"==typeof define&&define.amd?define(n):(t=t||self).__SVGATOR_PLAYER__=n()}(this,(function(){"use strict";function t(n){return(t="function"==typeof Symbol&&"symbol"==typeof Symbol.iterator?function(t){return typeof t}:function(t){return t&&"function"==typeof Symbol&&t.constructor===Symbol&&t!==Symbol.prototype?"symbol":typeof t})(n)}function n(t,n){if(!(t instanceof n))throw new TypeError("Cannot call a class as a function")}function r(t,n){for(var r=0;r<n.length;r++){var e=n[r];e.enumerable=e.enumerable||!1,e.configurable=!0,"value"in e&&(e.writable=!0),Object.defineProperty(t,e.key,e)}}function e(t,n,e){return n&&r(t.prototype,n),e&&r(t,e),t}var i=1e-5,u=Math.abs;function o(t){return t}function a(t,n,r){var e=1-r;return 3*r*e*(t*e+n*r)+r*r*r}function l(){var t=arguments.length>0&&void 0!==arguments[0]?arguments[0]:0,n=arguments.length>1&&void 0!==arguments[1]?arguments[1]:0,r=arguments.length>2&&void 0!==arguments[2]?arguments[2]:1,e=arguments.length>3&&void 0!==arguments[3]?arguments[3]:1;return t<0||t>1||r<0||r>1?null:u(t-n)<=i&&u(r-e)<=i?o:function(o){if(o<=0)return t>0?o*n/t:0===n&&r>0?o*e/r:0;if(o>=1)return r<1?1+(o-1)*(e-1)/(r-1):1===r&&t<1?1+(o-1)*(n-1)/(t-1):1;for(var l,f=0,s=1;f<s;){var c=a(t,r,l=(f+s)/2);if(u(o-c)<i)break;c<o?f=l:s=l}return a(n,e,l)}}function f(){return 1}function s(t){return 1===t?1:0}function c(){var t=arguments.length>0&&void 0!==arguments[0]?arguments[0]:1,n=arguments.length>1&&void 0!==arguments[1]?arguments[1]:0;if(1===t){if(0===n)return s;if(1===n)return f}var r=1/t;return function(t){return t>=1?1:(t+=n*r)-t%r}}function v(t){var n=arguments.length>1&&void 0!==arguments[1]?arguments[1]:2;if(Number.isInteger(t))return t;var r=Math.pow(10,n);return Math.round(t*r)/r}var h=Math.PI/180;function y(t,n,r){return t>=.5?r:n}function d(t,n,r){return 0===t||n===r?n:t*(r-n)+n}function g(t,n,r){var e=d(t,n,r);return e<=0?0:e}function m(t,n,r){return 0===t?n:1===t?r:{x:d(t,n.x,r.x),y:d(t,n.y,r.y)}}function p(t,n,r){return 0===t?n:1===t?r:{x:g(t,n.x,r.x),y:g(t,n.y,r.y)}}function b(t,n,r){var e=function(t,n,r){return Math.round(d(t,n,r))}(t,n,r);return e<=0?0:e>=255?255:e}function w(t,n,r){return 0===t?n:1===t?r:{r:b(t,n.r,r.r),g:b(t,n.g,r.g),b:b(t,n.b,r.b),a:d(t,null==n.a?1:n.a,null==r.a?1:r.a)}}function A(t,n,r){if(0===t)return n;if(1===t)return r;var e=n.length;if(e!==r.length)return y(t,n,r);for(var i=[],u=0;u<e;u++)i.push(w(t,n[u],r[u]));return i}function x(t,n,r){var e=n.length;if(e!==r.length)return y(t,n,r);for(var i=new Array(e),u=0;u<e;u++)i[u]=d(t,n[u],r[u]);return i}function k(t,n){for(var r=[],e=0;e<t;e++)r.push(n);return r}function S(t,n){if(--n<=0)return t;var r=(t=Object.assign([],t)).length;do{for(var e=0;e<r;e++)t.push(t[e])}while(--n>0);return t}var _=6,M=/\.0+$/g;function I(t){return Number.isInteger(t)?t+"":t.toFixed(_).replace(M,"")}function E(t){var n=arguments.length>1&&void 0!==arguments[1]?arguments[1]:" ";return t&&t.length?t.map(I).join(n):""}function F(t){return I(t.x)+","+I(t.y)}function B(t){return t?null==t.a||t.a>=1?"rgb("+t.r+","+t.g+","+t.b+")":"rgba("+t.r+","+t.g+","+t.b+","+t.a+")":"transparent"}var j={f:null,i:p,u:function(t,n){return function(r){var e=n(r);t.setAttribute("rx",I(e.x)),t.setAttribute("ry",I(e.y))}}},q={f:null,i:function(t,n,r){return 0===t?n:1===t?r:{width:g(t,n.width,r.width),height:g(t,n.height,r.height)}},u:function(t,n){return function(r){var e=n(r);t.setAttribute("width",I(e.width)),t.setAttribute("height",I(e.height))}}},P=Math.sin,O=Math.cos,z=Math.acos,L=Math.asin,C=Math.tan,R=Math.atan2,T=Math.PI/180,V=180/Math.PI,D=Math.sqrt,N=function(){function t(){var r=arguments.length>0&&void 0!==arguments[0]?arguments[0]:1,e=arguments.length>1&&void 0!==arguments[1]?arguments[1]:0,i=arguments.length>2&&void 0!==arguments[2]?arguments[2]:0,u=arguments.length>3&&void 0!==arguments[3]?arguments[3]:1,o=arguments.length>4&&void 0!==arguments[4]?arguments[4]:0,a=arguments.length>5&&void 0!==arguments[5]?arguments[5]:0;n(this,t),this.m=[r,e,i,u,o,a],this.i=null,this.w=null,this.s=null}return e(t,[{key:"point",value:function(t,n){var r=this.m;return{x:r[0]*t+r[2]*n+r[4],y:r[1]*t+r[3]*n+r[5]}}},{key:"translateSelf",value:function(){var t=arguments.length>0&&void 0!==arguments[0]?arguments[0]:0,n=arguments.length>1&&void 0!==arguments[1]?arguments[1]:0;if(!t&&!n)return this;var r=this.m;return r[4]+=r[0]*t+r[2]*n,r[5]+=r[1]*t+r[3]*n,this.w=this.s=this.i=null,this}},{key:"rotateSelf",value:function(){var t=arguments.length>0&&void 0!==arguments[0]?arguments[0]:0;if(t%=360){var n=P(t*=T),r=O(t),e=this.m,i=e[0],u=e[1];e[0]=i*r+e[2]*n,e[1]=u*r+e[3]*n,e[2]=e[2]*r-i*n,e[3]=e[3]*r-u*n,this.w=this.s=this.i=null}return this}},{key:"scaleSelf",value:function(){var t=arguments.length>0&&void 0!==arguments[0]?arguments[0]:1,n=arguments.length>1&&void 0!==arguments[1]?arguments[1]:1;if(1!==t||1!==n){var r=this.m;r[0]*=t,r[1]*=t,r[2]*=n,r[3]*=n,this.w=this.s=this.i=null}return this}},{key:"skewSelf",value:function(t,n){if(n%=360,(t%=360)||n){var r=this.m,e=r[0],i=r[1],u=r[2],o=r[3];t&&(t=C(t*T),r[2]+=e*t,r[3]+=i*t),n&&(n=C(n*T),r[0]+=u*n,r[1]+=o*n),this.w=this.s=this.i=null}return this}},{key:"resetSelf",value:function(){var t=arguments.length>0&&void 0!==arguments[0]?arguments[0]:1,n=arguments.length>1&&void 0!==arguments[1]?arguments[1]:0,r=arguments.length>2&&void 0!==arguments[2]?arguments[2]:0,e=arguments.length>3&&void 0!==arguments[3]?arguments[3]:1,i=arguments.length>4&&void 0!==arguments[4]?arguments[4]:0,u=arguments.length>5&&void 0!==arguments[5]?arguments[5]:0,o=this.m;return o[0]=t,o[1]=n,o[2]=r,o[3]=e,o[4]=i,o[5]=u,this.w=this.s=this.i=null,this}},{key:"recomposeSelf",value:function(){var t=arguments.length>0&&void 0!==arguments[0]?arguments[0]:null,n=arguments.length>1&&void 0!==arguments[1]?arguments[1]:null,r=arguments.length>2&&void 0!==arguments[2]?arguments[2]:null,e=arguments.length>3&&void 0!==arguments[3]?arguments[3]:null,i=arguments.length>4&&void 0!==arguments[4]?arguments[4]:null;return this.isIdentity||this.resetSelf(),t&&(t.x||t.y)&&this.translateSelf(t.x,t.y),n&&this.rotateSelf(n),r&&(r.x&&this.skewSelf(r.x,0),r.y&&this.skewSelf(0,r.y)),!e||1===e.x&&1===e.y||this.scaleSelf(e.x,e.y),i&&(i.x||i.y)&&this.translateSelf(i.x,i.y),this}},{key:"decompose",value:function(){var t=arguments.length>0&&void 0!==arguments[0]?arguments[0]:0,n=arguments.length>1&&void 0!==arguments[1]?arguments[1]:0,r=this.m,e=r[0]*r[0]+r[1]*r[1],i=[[r[0],r[1]],[r[2],r[3]]],u=D(e);if(0===u)return{origin:{x:r[4],y:r[5]},translate:{x:t,y:n},scale:{x:0,y:0},skew:{x:0,y:0},rotate:0};i[0][0]/=u,i[0][1]/=u;var o=r[0]*r[3]-r[1]*r[2]<0;o&&(u=-u);var a=i[0][0]*i[1][0]+i[0][1]*i[1][1];i[1][0]-=i[0][0]*a,i[1][1]-=i[0][1]*a;var l=D(i[1][0]*i[1][0]+i[1][1]*i[1][1]);if(0===l)return{origin:{x:r[4],y:r[5]},translate:{x:t,y:n},scale:{x:u,y:0},skew:{x:0,y:0},rotate:0};i[1][0]/=l,i[1][1]/=l,a/=l;var f=0;return i[1][1]<0?(f=z(i[1][1])*V,i[0][1]<0&&(f=360-f)):f=L(i[0][1])*V,o&&(f=-f),a=R(a,D(i[0][0]*i[0][0]+i[0][1]*i[0][1]))*V,{origin:{x:r[4],y:r[5]},translate:{x:t,y:n},scale:{x:u,y:l},skew:{x:a,y:0},rotate:f}}},{key:"toString",value:function(){return null===this.s&&(this.s="matrix("+this.m.map($).join(" ")+")"),this.s}},{key:"determinant",get:function(){var t=this.m;return t[0]*t[3]-t[1]*t[2]}},{key:"isIdentity",get:function(){if(null===this.i){var t=this.m;this.i=1===t[0]&&0===t[1]&&0===t[2]&&1===t[3]&&0===t[4]&&0===t[5]}return this.i}}]),t}(),G=/\.0+$/;function $(t){return Number.isInteger(t)?t:t.toFixed(14).replace(G,"")}Object.freeze({M:2,L:2,Z:0,H:1,V:1,C:6,Q:4,T:2,S:4,A:7});function H(t,n,r){return t+(n-t)*r}function Q(t,n,r){var e=arguments.length>3&&void 0!==arguments[3]&&arguments[3],i={x:H(t.x,n.x,r),y:H(t.y,n.y,r)};return e&&(i.a=function(t,n){return Math.atan2(n.y-t.y,n.x-t.x)}(t,n)),i}function U(t,n,r,e){var i=1-e;return i*i*t+2*i*e*n+e*e*r}function Y(t,n,r,e){return 2*(1-e)*(n-t)+2*e*(r-n)}function Z(t,n,r,e){var i=arguments.length>4&&void 0!==arguments[4]&&arguments[4],u={x:U(t.x,n.x,r.x,e),y:U(t.y,n.y,r.y,e)};return i&&(u.a=function(t,n,r,e){return Math.atan2(Y(t.y,n.y,r.y,e),Y(t.x,n.x,r.x,e))}(t,n,r,e)),u}function J(t,n,r,e,i){var u=i*i;return i*u*(e-t+3*(n-r))+3*u*(t+r-2*n)+3*i*(n-t)+t}function K(t,n,r,e,i){var u=1-i;return 3*(u*u*(n-t)+2*u*i*(r-n)+i*i*(e-r))}function W(t,n,r,e,i){var u=arguments.length>5&&void 0!==arguments[5]&&arguments[5],o={x:J(t.x,n.x,r.x,e.x,i),y:J(t.y,n.y,r.y,e.y,i)};return u&&(o.a=function(t,n,r,e,i){return Math.atan2(K(t.y,n.y,r.y,e.y,i),K(t.x,n.x,r.x,e.x,i))}(t,n,r,e,i)),o}function X(t,n,r){var e,i=arguments.length>3&&void 0!==arguments[3]&&arguments[3];if(nt(n)){if(null!=(e=r).start&&!nt(e))return Z(n,r.start,r,t,i)}else if(nt(r)){if(n.end)return Z(n,n.end,r,t,i)}else{if(n.end)return r.start?W(n,n.end,r.start,r,t,i):Z(n,n.end,r,t,i);if(r.start)return Z(n,r.start,r,t,i)}return Q(n,r,t,i)}function tt(t,n,r){var e=X(t,n,r,!0);return e.a=function(t){return arguments.length>1&&void 0!==arguments[1]&&arguments[1]?t+Math.PI:t}(e.a)/h,e}function nt(t){return!t.type||"corner"===t.type}var rt=new N;var et={f:function(t){return t?t.join(" "):""},i:function(n,r,e){if(0===n)return r;if(1===n)return e;var i=r.length;if(i!==e.length)return y(n,r,e);for(var u,o=new Array(i),a=0;a<i;a++){if((u=t(r[a]))!==t(e[a]))return y(n,r,e);if("number"===u)o[a]=d(n,r[a],e[a]);else{if(r[a]!==e[a])return y(n,r,e);o[a]=r[a]}}return o}},it={f:null,i:x,u:function(t,n){return function(r){var e=n(r);t.setAttribute("x1",I(e[0])),t.setAttribute("y1",I(e[1])),t.setAttribute("x2",I(e[2])),t.setAttribute("y2",I(e[3]))}}},ut={f:I,i:d},ot={f:I,i:function(t,n,r){var e=d(t,n,r);return e<=0?0:e>=1?1:e}},at={f:E,i:function(t,n,r){var e,i,u,o=n.length,a=r.length;if(o!==a)if(0===o)n=k(o=a,0);else if(0===a)a=o,r=k(o,0);else{var l=(u=(e=o)*(i=a)/function(t,n){for(var r;n;)r=n,n=t%n,t=r;return t||1}(e,i))<0?-u:u;n=S(n,Math.floor(l/o)),r=S(r,Math.floor(l/a)),o=a=l}for(var f=[],s=0;s<o;s++)f.push(v(g(t,n[s],r[s]),6));return f}};function lt(t,n,r,e,i,u,o,a){return n=function(t,n,r){for(var e,i,u,o=t.length-1,a={},l=0;l<=o;l++)(e=t[l]).e&&(e.e=n(e.e)),e.v&&"g"===(i=e.v).t&&i.r&&(u=r.getElementById(i.r))&&(a[i.r]=u.querySelectorAll("stop"));return a}(t,e,a),function(e){var i,u=r(e,t,ft);return u?"c"===u.t?B(u.v):"g"===u.t?(n[u.r]&&function(t,n){for(var r=0,e=t.length;r<e;r++)t[r].setAttribute("stop-color",B(n[r]))}(n[u.r],u.v),(i=u.r)?"url(#"+i+")":"none"):"none":"none"}}function ft(t,n,r){if(0===t)return n;if(1===t)return r;if(n&&r){var e=n.t;if(e===r.t)switch(n.t){case"c":return{t:e,v:w(t,n.v,r.v)};case"g":if(n.r===r.r)return{t:e,v:A(t,n.v,r.v),r:n.r}}}return y(t,n,r)}var st={blur:p,brightness:g,contrast:g,"drop-shadow":function(t,n,r){return 0===t?n:1===t?r:{blur:p(t,n.blur,r.blur),offset:m(t,n.offset,r.offset),color:w(t,n.color,r.color)}},grayscale:g,"hue-rotate":d,invert:g,opacity:g,saturate:g,sepia:g};function ct(t,n,r){if(0===t)return n;if(1===t)return r;var e=n.length;if(e!==r.length)return y(t,n,r);for(var i,u=[],o=0;o<e;o++){if(n[o].type!==r[o].type)return n;if(!(i=st[n[o].type]))return y(t,n,r);u.push({type:n.type,value:i(t,n[o].value,r[o].value)})}return u}var vt={blur:function(t){return t?function(n){t.setAttribute("stdDeviation",F(n))}:null},brightness:function(t,n,r){return(t=yt(r,n))?function(n){n=I(n),t.map((function(t){return t.setAttribute("slope",n)}))}:null},contrast:function(t,n,r){return(t=yt(r,n))?function(n){var r=I((1-n)/2);n=I(n),t.map((function(t){t.setAttribute("slope",n),t.setAttribute("intercept",r)}))}:null},"drop-shadow":function(t,n,r){var e=r.getElementById(n+"-blur");if(!e)return null;var i=r.getElementById(n+"-offset");if(!i)return null;var u=r.getElementById(n+"-flood");return u?function(t){e.setAttribute("stdDeviation",F(t.blur)),i.setAttribute("dx",I(t.offset.x)),i.setAttribute("dy",I(t.offset.y)),u.setAttribute("flood-color",B(t.color))}:null},grayscale:function(t){return t?function(n){t.setAttribute("values",E(function(t){return[.2126+.7874*(t=1-t),.7152-.7152*t,.0722-.0722*t,0,0,.2126-.2126*t,.7152+.2848*t,.0722-.0722*t,0,0,.2126-.2126*t,.7152-.7152*t,.0722+.9278*t,0,0,0,0,0,1,0]}(n)))}:null},"hue-rotate":function(t){return t?function(n){return t.setAttribute("values",I(n))}:null},invert:function(t,n,r){return(t=yt(r,n))?function(n){n=I(n)+" "+I(1-n),t.map((function(t){return t.setAttribute("tableValues",n)}))}:null},opacity:function(t,n,r){return(t=r.getElementById(n+"-A"))?function(n){return t.setAttribute("tableValues","0 "+I(n))}:null},saturate:function(t){return t?function(n){return t.setAttribute("values",I(n))}:null},sepia:function(t){return t?function(n){return t.setAttribute("values",E(function(t){return[.393+.607*(t=1-t),.769-.769*t,.189-.189*t,0,0,.349-.349*t,.686+.314*t,.168-.168*t,0,0,.272-.272*t,.534-.534*t,.131+.869*t,0,0,0,0,0,1,0]}(n)))}:null}};var ht=["R","G","B"];function yt(t,n){var r=ht.map((function(r){return t.getElementById(n+"-"+r)||null}));return-1!==r.indexOf(null)?null:r}var dt={fill:lt,"fill-opacity":ot,stroke:lt,"stroke-opacity":ot,"stroke-width":ut,"stroke-dashoffset":{f:I,i:d},"stroke-dasharray":at,opacity:ot,transform:function(n,r,e,i){if(!(n=function(n,r){if(!n||"object"!==t(n))return null;var e=!1;for(var i in n)n.hasOwnProperty(i)&&(n[i]&&n[i].length?(n[i].forEach((function(t){t.e&&(t.e=r(t.e))})),e=!0):delete n[i]);return e?n:null}(n,i)))return null;var u=function(t,i,u){var o=arguments.length>3&&void 0!==arguments[3]?arguments[3]:null;return n[t]?e(i,n[t],u):r&&r[t]?r[t]:o};return r&&r.a&&n.o?function(t){var r=e(t,n.o,tt);return rt.recomposeSelf(r,u("r",t,d,0)+r.a,u("k",t,m),u("s",t,m),u("t",t,m)).toString()}:function(t){return rt.recomposeSelf(u("o",t,X,null),u("r",t,d,0),u("k",t,m),u("s",t,m),u("t",t,m)).toString()}},"#filter":function(t,n,r,e,i,u,o,a){if(!n.items||!t||!t.length)return null;var l=function(t,n){var r=(t=t.map((function(t){return t&&vt[t[0]]?(n.getElementById(t[1]),vt[t[0]](n.getElementById(t[1]),t[1],n)):null}))).length;return function(n){for(var e=0;e<r;e++)t[e]&&t[e](n[e].value)}}(n.items,a);return l?(t=function(t,n){return t.map((function(t){return t.e=n(t.e),t}))}(t,e),function(n){l(r(n,t,ct))}):null},"#line":it,points:{f:E,i:x},d:et,r:ut,"#size":q,"#radius":j,_:function(t,n){if(Array.isArray(t))for(var r=0;r<t.length;r++)this[t[r]]=n;else this[t]=n}},gt=function(){function t(r){n(this,t),this.list=r,this.length=r.length}return e(t,[{key:"setAttribute",value:function(t,n){for(var r=this.list,e=0;e<this.length;e++)r[e].setAttribute(t,n)}},{key:"removeAttribute",value:function(t){for(var n=this.list,r=0;r<this.length;r++)n[r].removeAttribute(t)}},{key:"style",value:function(t,n){for(var r=this.list,e=0;e<this.length;e++)r[e].style[t]=n}}]),t}(),mt=/-./g,pt=function(t,n){return n.toUpperCase()};function bt(t){return"function"==typeof t?t:y}function wt(t){return t?"function"==typeof t?t:Array.isArray(t)?function(t){var n=arguments.length>1&&void 0!==arguments[1]?arguments[1]:o;if(!Array.isArray(t))return n;switch(t.length){case 1:return c(t[0])||n;case 2:return c(t[0],t[1])||n;case 4:return l(t[0],t[1],t[2],t[3])||n}return n}(t,null):function(t,n){var r=arguments.length>2&&void 0!==arguments[2]?arguments[2]:o;switch(t){case"linear":return o;case"steps":return c(n.steps||1,n.jump||0)||r;case"bezier":case"cubic-bezier":return l(n.x1||0,n.y1||0,n.x2||0,n.y2||0)||r}return r}(t.type,t.value,null):null}function At(t,n,r){var e=arguments.length>3&&void 0!==arguments[3]&&arguments[3],i=n.length-1;if(t<=n[0].t)return e?[0,0,n[0].v]:n[0].v;if(t>=n[i].t)return e?[i,1,n[i].v]:n[i].v;var u,o=n[0],a=null;for(u=1;u<=i;u++){if(!(t>n[u].t)){a=n[u];break}o=n[u]}return null==a?e?[i,1,n[i].v]:n[i].v:o.t===a.t?e?[u,1,a.v]:a.v:(t=(t-o.t)/(a.t-o.t),o.e&&(t=o.e(t)),e?[u,t,r(t,o.v,a.v)]:r(t,o.v,a.v))}function xt(t,n){var r=arguments.length>2&&void 0!==arguments[2]?arguments[2]:null;return t&&t.length?"function"!=typeof n?null:("function"!=typeof r&&(r=null),function(e){var i=At(e,t,n);return null!=i&&r&&(i=r(i)),i}):null}function kt(t,n){return t.t-n.t}function St(n,r,e,i,u){var o,a="@"===e[0],l="#"===e[0],f=dt[e],s=y;switch(a?(o=e.substr(1),e=o.replace(mt,pt)):l&&(e=e.substr(1)),t(f)){case"function":if(s=f(i,u,At,wt,e,a,r,n),l)return s;break;case"string":s=xt(i,bt(f));break;case"object":if((s=xt(i,bt(f.i),f.f))&&"function"==typeof f.u)return f.u(r,s,e,a,n)}return s?function(t,n,r){if(arguments.length>3&&void 0!==arguments[3]&&arguments[3])return t instanceof gt?function(e){return t.style(n,r(e))}:function(e){return t.style[n]=r(e)};if(Array.isArray(n)){var e=n.length;return function(i){var u=r(i);if(null==u)for(var o=0;o<e;o++)t[o].removeAttribute(n);else for(var a=0;a<e;a++)t[a].setAttribute(n,u)}}return function(e){var i=r(e);null==i?t.removeAttribute(n):t.setAttribute(n,i)}}(r,e,s,a):null}function _t(n,r,e,i){if(!i||"object"!==t(i))return null;var u=null,o=null;return Array.isArray(i)?o=function(t){if(!t||!t.length)return null;for(var n=0;n<t.length;n++)t[n].e&&(t[n].e=wt(t[n].e));return t.sort(kt)}(i):(o=i.keys,u=i.data||null),o?St(n,r,e,o,u):null}function Mt(t,n,r){if(!r)return null;var e=[];for(var i in r)if(r.hasOwnProperty(i)){var u=_t(t,n,i,r[i]);u&&e.push(u)}return e.length?e:null}function It(t,n){if(!n.duration||n.duration<0)return null;var r=function(t,n){if(!n)return null;var r=[];if(Array.isArray(n))for(var e=n.length,i=0;i<e;i++){var u=n[i];if(2===u.length){var o=null;if("string"==typeof u[0])o=t.getElementById(u[0]);else if(Array.isArray(u[0])){o=[];for(var a=0;a<u[0].length;a++)if("string"==typeof u[0][a]){var l=t.getElementById(u[0][a]);l&&o.push(l)}o=o.length?1===o.length?o[0]:new gt(o):null}if(o){var f=Mt(t,o,u[1]);f&&(r=r.concat(f))}}}else for(var s in n)if(n.hasOwnProperty(s)){var c=t.getElementById(s);if(c){var v=Mt(t,c,n[s]);v&&(r=r.concat(v))}}return r.length?r:null}(t,n.elements);return r?function(t,n){var r=arguments.length>2&&void 0!==arguments[2]?arguments[2]:1/0,e=arguments.length>3&&void 0!==arguments[3]?arguments[3]:1,i=arguments.length>4&&void 0!==arguments[4]&&arguments[4],u=arguments.length>5&&void 0!==arguments[5]?arguments[5]:1,o=t.length,a=e>0?n:0;i&&r%2==0&&(a=n-a);var l=null;return function(f,s){var c=f%n,v=1+(f-c)/n;s*=e,i&&v%2==0&&(s=-s);var h=!1;if(v>r)c=a,h=!0,-1===u&&(c=e>0?0:n);else if(s<0&&(c=n-c),c===l)return!1;l=c;for(var y=0;y<o;y++)t[y](c);return h}}(r,n.duration,n.iterations||1/0,n.direction||1,!!n.alternate,n.fill||1):null}var Et=function(){function t(r){var e=arguments.length>1&&void 0!==arguments[1]?arguments[1]:{};n(this,t),this._id=0,this._running=!1,this._animations=r,this.direction=e.direction||1,this.speed=e.speed||1,this.fps=e.fps||100,this.offset=e.offset||0}return e(t,[{key:"_start",value:function(){var t=this,n=arguments.length>0&&void 0!==arguments[0]?arguments[0]:0,r=-1/0,e=null,i={},u=function u(o){t._running=!0,null==e&&(e=o);var a=Math.round((o-e+n)*t.speed),l=t.fps?1e3/t.fps:0;if(a>r+l){t.offset=a,r=a;for(var f=t._animations,s=f.length,c=0,v=0;v<s;v++)i[v]?c++:(i[v]=f[v](a,t.direction),i[v]&&c++);if(c===s)return void t._stop()}t._id=window.requestAnimationFrame(u)};this._id=window.requestAnimationFrame(u)}},{key:"_stop",value:function(){this._id&&window.cancelAnimationFrame(this._id),this._running=!1}},{key:"play",value:function(){this._running||this._start(this.offset)}},{key:"stop",value:function(){this._stop(),this.offset=0;var t=this.direction,n=this._animations;requestAnimationFrame((function(){for(var r=0;r<n.length;r++)n[r](0,t)}))}},{key:"restart",value:function(){this._stop(),this.offset=0,this._start()}},{key:"pause",value:function(){this._stop()}},{key:"reverse",value:function(){this.direction=-this.direction}}],[{key:"build",value:function(n){if(!(n=function(t){if(!t||!t.root||!Array.isArray(t.animations))return null;var n=window.document.getElementById(t.root);if(!n)return null;var r=t.animations.map((function(t){return It(n,t)})).filter((function(t){return!!t}));return r.length?{element:n,animations:r,options:t.options||void 0}:null}(n)))return null;var r=n.element,e=n.options||{},i=new t(n.animations,n.options);return function(t,n,r){var e=arguments.length>3&&void 0!==arguments[3]?arguments[3]:null;if("click"===r){return void n.addEventListener("click",(function r(){n.removeEventListener("click",r),t.play()}))}if("hover"===r)return n.addEventListener("mouseenter",(function(){return t.play()})),void n.addEventListener("mouseleave","freeze"===e?function(){return t.pause()}:function(){return t.stop()});t.play()}(i,r,e.start,e.hover),i}}]),t}();return function(){for(var t=0,n=["ms","moz","webkit","o"],r=0;r<n.length&&!window.requestAnimationFrame;++r)window.requestAnimationFrame=window[n[r]+"RequestAnimationFrame"],window.cancelAnimationFrame=window[n[r]+"CancelAnimationFrame"]||window[n[r]+"CancelRequestAnimationFrame"];window.requestAnimationFrame||(window.requestAnimationFrame=function(n){var r=Date.now(),e=Math.max(0,16-(r-t)),i=window.setTimeout((function(){n(r+e)}),e);return t=r+e,i},window.cancelAnimationFrame=window.clearTimeout)}(),Et}));
__SVGATOR_PLAYER__.build({"root":"ekoz19un45q1","animations":[{"duration":3600,"direction":1,"iterations":0,"fill":1,"alternate":false,"elements":{"ekoz19un45q12":{"transform":{"keys":{"s":[{"t":800,"v":{"x":1,"y":1}},{"t":1400,"v":{"x":1.1,"y":1}},{"t":2200,"v":{"x":1,"y":1}}]}}},"ekoz19un45q15":{"transform":{"keys":{"s":[{"t":1300,"v":{"x":1,"y":1}},{"t":1900,"v":{"x":1.3,"y":1}},{"t":2700,"v":{"x":1,"y":1}}]}}},"ekoz19un45q37":{"transform":{"data":{"o":{"x":544.11,"y":160.172473,"type":"corner"},"t":{"x":-544.11,"y":-160.172473}},"keys":{"r":[{"t":0,"v":0},{"t":100,"v":3.6228760978995616},{"t":200,"v":6.306330791367295}]}}},"ekoz19un45q38":{"transform":{"data":{"o":{"x":565.48639409,"y":162.91,"type":"corner"},"t":{"x":-565.48639409,"y":-162.91}},"keys":{"r":[{"t":0,"v":0},{"t":100,"v":4.726420504670293},{"t":200,"v":7.1783745533451615}]}}},"ekoz19un45q40":{"transform":{"data":{"o":{"x":563.705,"y":201.51226780000002,"type":"corner"},"t":{"x":-563.705,"y":-201.51226780000002}},"keys":{"s":[{"t":1000,"v":{"x":1,"y":1}},{"t":1500,"v":{"x":1.1,"y":1}}]}}},"ekoz19un45q41":{"transform":{"data":{"o":{"x":541.4100000000001,"y":171.78,"type":"corner"},"t":{"x":-1.1368683772161603e-13,"y":0}},"keys":{"s":[{"t":0,"v":{"x":1,"y":0.2259290693406455}},{"t":300,"v":{"x":1,"y":0.9941927322685306}}]}}},"ekoz19un45q42":{"transform":{"data":{"o":{"x":565.7,"y":175.82,"type":"corner"}},"keys":{"s":[{"t":0,"v":{"x":1,"y":0.25324432166424155}},{"t":300,"v":{"x":1,"y":1.017066157363389}}]}}}}}],"options":{"start":"load","hover":"freeze"}})]]></script></svg>